<?xml version="1.0" encoding="UTF-8" standalone="no"?>
<!DOCTYPE svg PUBLIC "-//W3C//DTD SVG 1.1//EN" "http://www.w3.org/Graphics/SVG/1.1/DTD/svg11.dtd">
<svg width="841.92pt" height="1190.64pt" viewBox="0 0 841.92 1190.64" overflow="visible" version="1.1" xmlns="http://www.w3.org/2000/svg">
  <path d="M228.5756,700.5156 L222.9468,694.7363 L222.7655,699.6446 L219.5774,692.1156 L223.3388,684.1498 L231.2758,673.1812 L235.0794,670.2678 L247.9758,668.6233 L234.435,674.2843 L254.2052,674.6666 L250.4299,667.598 L262.3187,672.7388 L254.2052,674.6666 L267.2514,679.8914" stroke="#000000" stroke-width="0.24" fill-opacity="0" />
  <path d="M231.5989,696.9376 L236.0258,694.935 L231.1509,692.1156 L231.5989,696.9376 L236.4738,700.0208 L231.0455,703.0514 L228.5756,700.5156 L231.5989,696.9376 L231.0455,692.2355 L227.3038,696.4898 L228.5756,700.5156 L231.0455,703.0514 L222.7655,699.6446 L222.9468,694.7363 L223.3388,684.1498 L219.5774,692.1156 L219.2126,685.1927" stroke="#000000" stroke-width="0.24" fill-opacity="0" />
  <path d="M217.2436,677.2361 L208.4304,679.4241 L206.1629,694.18 L212.6131,683.6979 L221.0446,678.1254 L215.3309,688.1691 L210.361,689.6678 L214.7264,698.6738 L208.2264,697.3892 L196.2858,709.5567 L214.7264,698.6738 L208.2264,697.3892 L210.361,689.6678 L218.2328,682.2776 L215.3309,688.1691 L214.726,698.6743" stroke="#000000" stroke-width="0.24" fill-opacity="0" />
  <path d="M191.4933,690.1732 L188.8777,690.4773 L189.2451,682.8865 L180.7975,686.3148 L185.9396,686.3148 L189.2451,682.8865 L194.1088,689.8691 L193.7753,679.8263 L208.4666,679.3975 L193.7753,690.1732 L206.1629,694.18 L208.4666,679.3975 L212.6131,683.6979 L217.2436,677.2364 L209.442,674.6074 L204.0384,651.3103 L203.7365,645.4157 L206.8778,638.4305 L207.0995,648.7028 L210.4629,651.9904 L216.0552,666.1982" stroke="#000000" stroke-width="0.24" fill-opacity="0" />
  <path d="M279.1308,564.065 L280.3552,553.3522 L291.5575,552.7402 L291.789,564.6372 L284.3819,577.4312 L289.1566,576.5743 L285.0681,584.8735 L278.4125,593.9182 L290.832,586.9205 L285.0681,584.8737 L290.832,581.9874 L290.832,586.9205 L298.5944,582.5469 L290.832,581.9874 L305.2611,565.55 L300.402,582.7554 L298.5944,582.5469 L290.832,581.9874 L293.7292,572.1171 L303.1254,559.3575 L295.5805,562.7448 L296.2496,559.3575 L300.037,550.0921 L301.572,537.5071 L303.1254,524.5491" stroke="#000000" stroke-width="0.24" fill-opacity="0" />
  <path d="M206.8778,638.4305 L203.7365,645.4157 L210.4629,651.9904 L204.0384,651.3103 L216.0552,666.1982 L209.442,674.6074 L217.2436,677.2364 L216.0552,666.1982 L221.8741,670.7743 L212.6131,683.6979 L229.476,672.5529 L219.2126,685.1927 L234.435,674.2843 L229.476,672.5529 L235.0794,670.2678 L234.435,674.2843 L250.4299,667.598 L254.2052,674.6666 L262.3187,672.7388 L267.2514,679.8914 L263.0925,667.8177 L257.6401,653.1453 L265.0475,648.4314 L257.145,632.5299 L261.9302,622.0413 L256.7913,617.809 L273.9928,594.2035 L267.9617,608.1223 L285.0681,584.8737 L284.3819,577.4312 L289.1566,576.5743 L291.789,564.6372 L288.6194,562.3508 L291.5575,552.7402 L280.3552,553.3522 L290.0885,557.5457 L283.2154,554.5843 L279.1308,564.065 L282.1303,568.1051 L287.6661,565.4689 L283.3546,564.4321 L282.1302,568.1053 L279.1308,564.065 L283.3546,564.4321 L287.6157,565.6337 L286.2934,560.5145 L283.3546,564.4321 L281.1729,559.3245 L286.2934,560.5145" stroke="#000000" stroke-width="0.24" fill-opacity="0" />
  <path d="M303.2802,699.8677 L297.3795,713.999 L293.7929,711.71 L293.1438,700.5848 L288.6254,695.3151" stroke="#000000" stroke-width="0.24" fill-opacity="0" />
  <path d="M303.1875,524.3896 L304.6625,535.7504 L301.572,537.5071 L307.8856,539.7354 L300.037,550.0921 L310.1696,556.1951 L296.3846,558.6741 L293.7292,572.1171 L285.0681,584.8737 L273.9928,594.2035 L261.9302,622.0413 L256.7914,617.8089 L257.6401,653.1453 L265.0475,648.4314 L263.0921,667.8174 L276.5565,681.2389 L267.2514,679.8914 L288.6254,695.3151 L276.5565,681.2389 L303.2801,699.8678 L293.1438,700.5848 L293.7929,711.71 L303.2802,699.8677 L307.4783,732.6115 L297.3795,713.999 L304.7512,743.9293 L307.4783,732.6115 L317.3455,736.9255 L304.7512,743.9292 L319.9241,743.9292 L317.3455,736.9256 L325.4276,738.2145 L319.9241,743.9292 L348.1869,743.9292 L325.4276,738.2145" stroke="#000000" stroke-width="0.24" fill-opacity="0" />
  <path d="M457.3902,668.9709 L455.0577,680.3342 L448.4496,698.9659 L447.0033,692.7407 L447.408,694.4818 L437.4834,702.7579 L448.4496,698.9659 L447.0033,692.7407 L455.0577,680.3342 L458.7021,685.3386" stroke="#000000" stroke-width="0.24" fill-opacity="0" />
  <path d="M449.945,720.2357 L444.1532,726.6219 L442.8854,719.0022 L433.6564,718.8536 L410.8234,724.8525 L417.4958,714.6909 L409.9664,715.5478 L410.4574,720.8792 L393.8316,715.1295 L409.9664,715.5478 L393.8316,712.4558 L398.3855,699.9066 L394.5694,687.8981 L393.8316,712.3206 L393.686,703.722 L390.8745,696.5732 L387.4608,707.457 L393.686,703.722 L382.0594,679.6561 L387.4608,707.457" stroke="#000000" stroke-width="0.24" fill-opacity="0" />
  <path d="M368.4423,688.6553 L380.0341,704.5521 L384.969,699.9773 L379.98,685.8621 L380.0341,704.5521" stroke="#000000" stroke-width="0.24" fill-opacity="0" />
  <path d="M457.4856,708.6586 L442.8854,719.0022 L433.6564,718.8536 L417.4958,714.6909 L410.8234,724.8525 L409.9664,715.5478 L393.8316,715.1295 L386.928,711.1329 L393.8316,712.4558 L375.8705,702.2078 L371.7614,699.8944 L368.4423,688.6553 L372.9029,678.8494 L368.4211,658.2317 L368.4423,688.6553 L364.0885,661.8459 L359.1001,666.4557 L368.4423,688.6553 L360.1582,679.6054 L359.1002,666.4556 L359.0289,650.9092 L352.6776,629.0408 L354.8368,661.3141 L359.0289,650.9092 L359.0674,659.2776 L364.0885,661.8459 L359.1002,666.4556 L354.8368,661.3141" stroke="#000000" stroke-width="0.24" fill-opacity="0" />
  <path d="M471.7838,720.0068 L488.1678,713.1351 L503.8358,707.0387 L507.2574,700.4909 L483,708.7101 L463.9505,719.4545 L460.4125,731.4995 L452.8932,740.5511" stroke="#000000" stroke-width="0.24" fill-opacity="0" />
  <path d="M355.0045,699.6096 L347.8075,694.807 L356.1965,689.5166 L353.5783,698.6582 L347.8075,694.807 L342.0638,703.8005 L342.5929,714.0026 L353.5783,701.2635 L349.0926,722.8447 L352.342,710.0729 L350.4527,730.6293 L349.0926,722.8447 L342.5929,714.0029 L342.0638,703.8005 z" stroke="#000000" stroke-width="0.24" fill-opacity="0" />
  <path d="M314.3271,663.2297 L313.5437,658.9581 L311.5357,660.3237 L318.8791,667.9685 L323.3052,675.959 L326.5488,668.7582" stroke="#000000" stroke-width="0.24" fill-opacity="0" />
  <path d="M344.7665,674.7024 L344.5367,679.0009 L350.7957,664.3808 L344.9189,671.8495 L338.3077,673.7468 L344.3069,683.2964 L331.3291,690.0299 L338.3077,673.7468 L328.4688,684.0942 L331.3291,690.0299 L326.1455,695.5071 L325.0622,700.8281 L335.1047,718.7075" stroke="#000000" stroke-width="0.24" fill-opacity="0" />
  <path d="M318.6795,674.1635 L321.1138,685.8185 L304.6601,684.9709" stroke="#000000" stroke-width="0.24" fill-opacity="0" />
  <path d="M321.1138,685.8185 L322.868,696.5934 L304.6601,684.9709 L311.7287,670.2878 L318.6795,674.1635 L304.1085,671.2986 L306.6798,650.6083 L311.7287,670.2878 L304.1087,671.2986 L308.1939,677.6295 L311.7289,670.288 z" stroke="#000000" stroke-width="0.24" fill-opacity="0" />
  <path d="M511.1252,712.5898 L503.8358,707.0387 L507.2574,700.4909 L506.7446,696.4589 L483,708.7101 L458.5608,716.0759 L463.8123,707.9546 L460.0441,704.7313 L469.7044,683.1451 L458.3797,679.9008 L458.7022,685.3386 L460.0441,704.7313 L457.4856,708.6586 L449.945,720.2357 L442.8854,719.0022 L422.2094,733.0557 L419.9558,731.4313 L391.6476,737.4706 L401.0749,727.3091 L392.6272,725.84 L391.6476,737.4706 L377.2624,734.8385 L392.6272,725.84 L371.2961,729.5368 L350.0229,732.4648 L349.6009,737.833 L337.3588,724.3087 L350.0229,732.4648 L328.463,712.5826 L324.6946,716.1526 L325.0622,700.8281 L322.6584,686.0629 L329.9138,676.9941" stroke="#000000" stroke-width="0.24" fill-opacity="0" />
  <path d="M526.9477,696.5067 L520.3281,700.2488 L511.1252,712.5898 L514.6504,694.6404 L507.2571,700.4907 L488.1678,713.1351 L483,708.7101 L469.1167,722.693 L458.5608,716.0759 L460.4125,731.4995 L444.1532,726.6219 L452.8932,740.5511 L449.945,720.2357 L463.7841,737.2029 L452.9012,740.6041 L456.7555,743.9292 L485.549,743.9289 L463.7841,737.2029 L456.7555,743.9292" stroke="#000000" stroke-width="0.24" fill-opacity="0" />
  <path d="M398.5154,514.0884 L383.2732,522.1323 L395.1397,522.0919 L400.1446,510.2265 L407.6129,514.5117 L395.1397,522.0919 L400.1442,510.2265 L411.6526,508.696 L407.6128,514.5117 L414.7475,512.596 L411.6526,508.696 L417.7052,506.9361 L414.7475,512.596" stroke="#000000" stroke-width="0.24" fill-opacity="0" />
  <path d="M548.0821,727.2684 L543.4055,720.8268 L538.116,710.441 L542.0529,699.2452 L542.5233,706.7538" stroke="#000000" stroke-width="0.24" fill-opacity="0" />
  <path d="M564.9546,685.7294 L560.8265,680.6885 L549.4829,691.9357 L546.8586,678.3293 L538.0889,690.8605 L542.0529,699.2452 L549.4826,691.9355 L542.5233,706.7538 L543.4055,720.8268 L549.9009,722.7112 L548.0667,727.2731 L561.2185,723.245 L561.616,715.6249 L564.6113,709.9434 L556.6161,707.52 L562.9646,701.1878 L564.6113,709.9434 L559.4303,714.0802 L553.0842,712.0723 L552.5222,704.2401 L558.3859,700.666 L556.616,707.52 L552.53,704.35 L553.0842,712.0723 L556.616,707.52 L559.4303,714.0802 L563.3316,716.8375 L567.0211,718.8907 z" stroke="#000000" stroke-width="0.24" fill-opacity="0" />
  <path d="M560.8265,680.6885 L573.1477,676.1793 L564.9546,685.7294 z" stroke="#000000" stroke-width="0.24" fill-opacity="0" />
  <path d="M429.3602,659.8172 L419.8272,659.6686 L423.0217,668.5436 L427.8809,680.4443 L432.8395,676.2297 L419.9477,681.1386" stroke="#000000" stroke-width="0.24" fill-opacity="0" />
  <path d="M421.1873,657.09 L419.7491,659.8169 L413.9329,666.1266 L414.5924,659.5978 L411.2447,668.6558 L413.8491,677.1714" stroke="#000000" stroke-width="0.24" fill-opacity="0" />
  <path d="M419.7491,659.8169 L418.0142,673.2048 L423.0217,668.5436 L429.4681,659.6686 L432.8397,676.2294 L423.0218,668.544 L427.8809,680.4443 L418.0142,673.205 L419.9477,681.1386 L413.8491,677.1714 L418.0142,673.205 L411.2447,668.6558 L413.9329,666.1266 L418.0142,673.205 L419.8272,659.6686 L414.4063,659.6686 L421.1873,657.09 L429.36,659.8169 L435.0212,668.3458 L432.8395,676.2297 L425.7951,688.3462 L418.345,689.5807 L406.9601,684.1483" stroke="#000000" stroke-width="0.24" fill-opacity="0" />
  <path d="M391.3404,586.7576 L382.7447,591.7378 L381.537,607.4338 L377.7592,611.6384 L384.5038,619.6825 L407.4311,623.9518 L417.2873,618.3365 L422.9796,610.4234 L428.3836,583.9128 L419.8764,576.3255 L413.836,583.3085 L418.8964,580.7784 L420.5429,587.8474 L424.3848,582.5767 L424.8076,589.116 L418.8865,591.5554 L413.836,583.3085 L420.5429,587.8474 L418.8865,591.5554" stroke="#000000" stroke-width="0.24" fill-opacity="0" />
  <path d="M401.7509,588.0136 L395.3541,602.1944 L385.3382,595.6988 L381.7241,605.0024 L388.71,602.6408 L385.3384,595.6992 z" stroke="#000000" stroke-width="0.24" fill-opacity="0" />
  <path d="M359.7377,597.1401 L375.5185,608.5286 L362.8302,605.936 L361.7169,611.3848 L375.5188,608.5285 L370.51,619.3338 z" stroke="#000000" stroke-width="0.24" fill-opacity="0" />
  <path d="M364.797,570.0592 L370.0894,578.3851 L362.7587,588.2095 L371.3745,587.3777 L364.8748,598.7899 L375.531,606.725 L378.2061,601.9685 L374.0951,589.7944 L384.5276,582.4979 L379.7454,591.171 L378.2061,601.9685 L375.531,606.725 L370.0894,578.3851 z" stroke="#000000" stroke-width="0.24" fill-opacity="0" />
  <path d="M374.0951,589.7944 L373.0574,573.1373 L381.9022,560.355 L380.4285,550.0919 L373.0575,573.1372 L381.9022,560.355 L388.2303,571.0283 L388.6255,579.6317 L374.0952,589.7944 L388.2298,571.0283 L373.0574,573.1373" stroke="#000000" stroke-width="0.24" fill-opacity="0" />
  <path d="M437.64,575.975 L428.3836,583.9128 L434.7467,589.171 L422.9796,610.4234 L419.4472,604.8768 L417.5167,610.3515 L409.6964,614.4191 L408.3501,611.603 L401.4936,610.5627 L401.1262,601.2582 L404.8606,608.6035 L408.9995,604.5226 L405.5204,601.4921 L404.8605,608.6035 L401.4936,610.5627 L409.6964,614.4191 L419.4472,604.8768 L417.5169,610.3513 L422.9796,610.4234 L414.8048,614.8287 L400.3274,622.6289 L417.2873,618.3365 L407.4311,623.9518 L395.7095,625.1366 L384.5038,619.6825 L381.537,607.4338 L377.7592,611.6384 L382.7447,591.7378 L390.6972,582.5806 L391.7239,588.6357 L398.6915,581.4397 L393.1829,578.2545 L391.7239,588.6357 L395.2397,587.5001 L393.1829,578.2545 L398.481,584.9179 L390.6972,582.5806" stroke="#000000" stroke-width="0.24" fill-opacity="0" />
  <path d="M395.8523,556.5249 L398.3319,567.8302 L404.6291,572.8384 L413.4547,573.7804 L422.0785,568.6792 L421.147,561.0381 L418.0981,548.8846" stroke="#000000" stroke-width="0.24" fill-opacity="0" />
  <path d="M443.3458,533.746 L450.9709,560.9052 L456.1982,554.996 L443.3458,586.5615 L461.019,561.4186 L479.8867,542.6829 L495.5552,539.8074 L499.6335,540.6228 L505.2182,545.6527 L508.9636,550.8457 L512.0192,563.1941" stroke="#000000" stroke-width="0.24" fill-opacity="0" />
  <path d="M437.5194,513.4506 L430.949,503.5612 L433.1563,514.4925 L427.6025,509.3847 L430.949,503.5612 L420.7935,490.4524 L427.0642,503.6885 L430.949,503.5612 L433.1563,514.4925 L437.5193,513.4509 L444.7507,529.7912 L433.1916,516.949 L443.3458,533.746 L445.3663,530.4748 L453.894,548.4791 L457.4964,551.6732 L462.4452,550.8132 L463.4001,536.5652 L463.3117,532.5997" stroke="#000000" stroke-width="0.24" fill-opacity="0" />
  <path d="M404.3233,501.1865 L415.2663,504.2635 L420.988,509.8499 L413.9189,517.3808 L414.7977,522.9435 L408.0077,517.2192 L398.9835,528.574 L414.7977,522.9435 L408.0077,517.2192 L413.6797,517.3806 L421.0107,509.872 L414.7977,522.9435" stroke="#000000" stroke-width="0.24" fill-opacity="0" />
  <path d="M363.6245,494.6278 L356.5578,501.0535 L339.3271,494.0704 L363.6248,494.6277 L362.1808,508.3633 L372.5989,504.5445 L363.6248,494.6277 L377.0037,496.947 L372.5989,504.5445 L386.5481,504.5227 L377.0037,496.947 L397.8823,499.3754 L386.5481,504.5227 L404.3233,501.1865 L397.882,499.3752 L418.1953,507.1232 L415.2663,504.2635 L433.1916,516.949 L422.9341,512.1948 L423.9554,526.0805 L418.3146,522.1614 L421.0601,529.6262 L409.0233,528.52 L418.3146,522.1614 L423.0763,511.8882 L436.4629,522.3597 L433.1916,516.949 L445.3663,530.4748 L443.3458,533.746 L453.894,548.4791 L456.1982,554.996 L443.4839,586.5267 L440.2224,607.7991 L429.481,615.6023 L434.4872,624.9474 L438.8568,648.8087 L446.4905,652.6183 L434.4872,624.9471 L444.3891,636.8657 L459.7743,658.0052 L459.1351,647.9236 L454.9792,644.1992 L459.1351,631.9321 L451.523,622.053 L459.6547,623.1441 L453.1381,610.623 L457.404,597.6685 L459.1351,612.6739 L461.5691,608.9738 L458.247,605.2057 L453.1381,610.623 L459.1351,612.7584 L459.6547,623.1441 L456.283,628.2511 L454.9792,644.1992 L448.8252,626.4797 L447.8419,610.1976 L451.518,612.4098 L446.6189,602.0092 L453.2053,593.2541 L450.1531,604.2184 L446.6189,602.0092 L447.8419,610.1976" stroke="#000000" stroke-width="0.24" fill-opacity="0" />
  <path d="M538.861,519.0725 L521.2051,525.1789 L519.6055,521.1029 L507.2294,525.9598 L521.2048,525.1791 L503.1465,535.3553 L505.0311,526.0825 L496.2841,535.3798 L495.5552,539.8074 L508.7496,542.4454 L514.3367,558.2971 L511.7347,576.7188 L510.3997,572.652 L500.3001,580.4725 L496.6238,580.7 L491.2884,573.2504" stroke="#000000" stroke-width="0.24" fill-opacity="0" />
  <path d="M463.0525,520.9221 L458.0153,530.0706 L463.3117,532.5997 L463.1119,523.5955 L466.6728,533.5703 L463.3117,536.7913 L456.1982,554.996 L462.4452,550.8132 L480.035,535.6914 L496.2841,535.3798 L503.1465,535.3553 L505.0311,526.0825 L521.2048,525.1791 L519.618,521.0977 L538.861,519.0725 L533.5583,523.5289 L542.4625,527.7613 L538.861,519.0725 L546.278,528.6449 L542.9446,535.2719 L536.6389,538.4046 L546.278,528.6449 L542.4625,527.7613 L536.6389,538.4046 L528.2631,535.6914 L531.739,533.4245 L536.6393,538.4047 L542.4625,527.7613 L531.7391,533.4244 L533.5586,523.5292 L528.2631,535.6914" stroke="#000000" stroke-width="0.24" fill-opacity="0" />
  <path d="M441.5251,494.8095 L444.7325,502.3193 L438.9675,498.0326 L458.1281,522.4123 L463.1782,520.7291 L463.1119,523.5955 L466.6826,518.1237 L472.0081,522.1694 L474.488,512.4547 L466.6826,518.1237 L463.1119,523.5955 L472.0081,522.1694" stroke="#000000" stroke-width="0.24" fill-opacity="0" />
  <path d="M450.1987,471.2493 L444.6358,477.7555 L438.2796,487.2717 L441.6096,475.3865 L441.7561,495.346 L438.2796,487.2717 L438.9675,498.0326 L450.4974,506.606 L451.0536,513.6147 L455.2387,513.7437 L460.3416,503.6826 L466.0071,504.6273 L466.3746,492.7513 L471.884,493.2407 L474.4152,482.7072 L482.2749,478.1728 L471.884,493.2407 L470.1082,489.0782 L466.3746,492.4247 L460.3439,503.522 L460.242,510.6736 L455.2387,513.7437 L463.0525,520.9221 L471.2365,508.3552 L471.3552,511.6107 L478.8661,508.7596 L476.5439,515.5407 L489.7827,512.8632 L478.8661,508.7596 L499.3492,496.332 L489.7827,512.8632 L478.866,508.7594 L471.2365,508.3552 L463.4615,515.0244 L463.0525,520.9221 L458.0153,530.0706 L458.1281,522.4123 L455.2387,513.7437 L450.4974,506.606 L438.9675,498.0326 L441.7561,495.346 L441.6096,475.3865" stroke="#000000" stroke-width="0.24" fill-opacity="0" />
  <path d="M446.4249,455.2702 L445.7691,454.0592 L444.1225,466.6704 L451.7937,465.1842 L441.6096,475.3865 L444.6358,477.7555 L459.2104,480.7814 L450.1987,471.2493 L460.2838,471.0861 L459.4651,478.478 L464.8705,476.78 L460.2838,471.0861 L469.4637,458.9539 L464.8705,476.78" stroke="#000000" stroke-width="0.24" fill-opacity="0" />
  <path d="M444.1225,466.6704 L448.6207,467.4739 L451.7937,465.1842 L454.2841,448.5568 L446.4249,455.2702 L451.7938,465.1844 L454.7253,457.7543 L453.8387,451.5284" stroke="#000000" stroke-width="0.24" fill-opacity="0" />
  <path d="M425.7614,445.0888 L427.4851,455.8269 L430.658,450.7264 L433.4293,463.8999 L427.485,455.8269 L421.2597,468.7594 L433.4292,463.8997 L433.8666,473.598 L421.2597,468.7594 L437.2416,480.4517 L433.8666,473.598 L440.5659,474.5147 L439.554,458.349 L434.6468,453.0855 L435.5677,471.1286 L441.9317,450.7264 L435.5677,454.0732 L442.3954,468.4778 L435.5677,471.1286 L441.6096,475.3865 L457.7192,462.3126 L459.8288,464.3081 L459.6619,468.4778 L452.1889,466.444 L457.7195,462.3125 L454.5555,470.5492 L459.6619,468.4778" stroke="#000000" stroke-width="0.24" fill-opacity="0" />
  <path d="M557.8884,662.5688 L546.8589,678.3297 L538.2377,677.8091 L529.2518,682.0996 L546.8586,678.3293 L537.9832,691.0116 L529.2518,682.0996 L515.7306,686.3524 L502.9878,685.9558 L502.6418,694.8049 L486.1288,693.5419 L469.7044,683.1451 L463.8123,707.9546 L460.0443,704.7314 L458.5608,716.0759 L449.945,720.2357 L442.8854,719.0022 L444.1532,726.6219 L422.2094,733.0557 L433.6564,718.8536 L410.8234,724.8525 L419.9558,731.4313 L401.0749,727.3091 L391.6476,737.4706 L392.6272,725.84 L377.2624,734.8385 L371.2961,729.5368 L349.6009,737.833 L350.0229,732.4648 L324.6946,716.1526 L328.4633,712.5825 L325.062,700.8279 L329.9138,676.9941 L323.3052,675.959 L322.6584,686.0629 L318.8791,667.9685 L323.3057,675.9595 L322.6584,659.3332 L319.1337,653.0043 L319.6298,645.368 L314.2748,643.9802 L313.5307,649.1862 L319.6298,645.368 L322.6297,659.2637 L326.5488,668.7582 L336.7708,647.6942 L329.2408,656.9987 L329.792,661.5569 L327.4357,676.6059 L337.1804,670.2344 L342.2735,660.4518 L344.767,661.7552 L340.4883,663.0044 L332.5845,671.6553 L327.9883,673.0764" stroke="#000000" stroke-width="0.24" fill-opacity="0" />
  <path d="M557.8884,662.5688 L538.2377,677.8091 L533.2546,675.8174 L529.2518,682.0996 L537.9832,691.0116 L526.9477,696.5067 L514.6504,694.6404 L502.6408,694.8309 L502.9878,685.9558 L491.8811,681.7907 L474.1114,670.9023 L469.7042,683.145 L458.3797,679.9008 L457.3902,668.9709 L443.7748,669.7743 L455.0577,680.3342 L450.8167,682.5062 L441.5485,681.5629 L445.6503,689.7658 L430.5027,687.5665 L428.4571,692.5931 L418.345,689.5807 L414.0854,695.5029 L402.6964,689.0455 L407.2266,683.8422 L400.064,683.4748 L392.0807,658.5897 L396.811,666.4766 L401.5237,640.2655 L403.9071,644.3118 L414.9597,631.6041 L415.266,636.8073 L421.9991,631.9106 L422.5784,639.9239 L427.0259,636.8394 L426.5909,640.4575 L424.1147,643.2961 L422.5784,639.9239 L418.5017,641.5889 L419.0637,637.0966 L422.3159,636.046 L427.0262,636.8392 L422.0342,631.8851 L414.9597,631.6041 L401.5237,640.2654 L392.0807,658.5897 L407.2266,683.8422 L400.0641,683.4749 L402.6964,689.0455 L418.3449,689.5804 L414.085,695.5029 L428.4571,692.5931 L434.0108,696.5102 L445.6499,689.7658 L450.8161,682.5065 L441.5485,681.5629 L443.7748,669.7742 L457.3902,668.9709 L446.4905,652.6183 L443.7748,669.7743 L441.5485,650.152 L446.4905,652.6183 L444.3888,636.8655 L434.4872,624.9471 L448.8252,626.4797 L440.2224,607.7991 L433.7338,612.5132 L431.0255,606.1453 L437.64,575.975 L426.2549,572.504 L429.481,568.7006 L427.4284,557.0322 L422.0785,568.6792 L421.3674,561.0112 L413.4547,573.7804 L406.5131,562.822 L418.0981,548.8846 L405.3264,548.0812 L395.8523,556.5249 L406.5131,562.822 L405.3264,548.0812 L413.6803,541.8962 L418.0981,548.8846 L422.9984,549.0052 L421.3674,561.0112 L406.5131,562.822 L404.6291,572.8384 L395.8523,556.5249 L398.7779,546.7566 L413.6803,541.8962 L422.9984,549.0052 L427.4279,557.0322 L426.2549,572.504 L429.4958,568.6832 L437.64,575.975 L430.3738,566.7227 L439.0886,568.7314 L433.4663,561.2205 L441.4984,560.3372 L431.2505,557.4307 L433.0467,538.7747 L441.4984,560.3372 L439.0886,568.7314 L437.64,575.9752" stroke="#000000" stroke-width="0.24" fill-opacity="0" />
  <path d="M522.8566,646.7621 L531.0563,647.7148 L538.4656,653.8459 L538.3964,667.7476 L529.2518,682.0996 L514.6501,694.6405 L515.7306,686.3524 L502.6408,694.8309 L491.8811,681.7907 L486.1288,693.5419 L474.1117,670.9023 L457.3902,668.9709 L459.7743,658.0052 L446.4905,652.6183 L444.3888,636.8655 L448.8252,626.4797 L434.4872,624.9471 L440.2226,607.7991 L431.0255,606.1453 L443.4839,586.5269 L437.64,575.975 L456.1982,554.996 L461.019,561.4186 L462.4452,550.8132 L479.8864,542.683 L480.035,535.6914 L495.5552,539.8074 L496.2841,535.3798 L508.7496,542.4454 L505.2182,545.6527 L514.3367,558.2971 L509.7016,568.091 L511.7347,576.7188 L500.3001,580.4725 L491.2884,573.2504 L493.9636,567.1176 L494.1399,571.2083 L503.398,563.6688 L503.2028,571.6069 L499.1879,569.6788 L497.1838,574.4045 L503.2028,571.5934 L503.4628,576.9747 L497.1838,574.4045 L503.2024,571.6071 L503.4628,576.9747 L505.3499,573.6238 L503.2026,571.6071 L506.2277,567.573 L503.398,563.6688 L493.9659,567.171 L494.1399,571.2083 L494.333,575.6906" stroke="#000000" stroke-width="0.24" fill-opacity="0" />
  <path d="M509.0124,660.6819 L512.8681,653.6539 L522.8566,646.7621 L523.0175,656.3616 L531.0563,647.7148 L533.6263,661.9327 L538.3964,667.7476 L528.7996,677.8326 L521.9641,668.4136 L517.2668,676.2038 L528.7997,677.8325 L537.0963,674.0796 L538.3964,667.7476 L538.4656,653.8459 L533.6264,661.9326 L528.7996,677.8326 L517.2668,676.2038 L510.7394,670.6824" stroke="#000000" stroke-width="0.24" fill-opacity="0" />
  <path d="M533.6264,661.9326 L523.0175,656.3616 L512.2045,664.7589 L512.8681,653.6539 L523.0175,656.3615 L521.9641,668.4136 L512.204,664.7591 L510.7394,670.6824 L509.0124,660.6819 L512.2045,664.7589 L517.2668,676.2038 L521.9641,668.4136 z" stroke="#000000" stroke-width="0.24" fill-opacity="0" />
  <path d="M525.6459,627.8943 L512.6175,629.1945 L509.5442,643.9776 L506.3946,636.5274 L490.6809,645.9557" stroke="#000000" stroke-width="0.24" fill-opacity="0" />
  <path d="M617.0769,758.6344 L597.0068,743.9292 L580.6127,743.9292 L490.2879,743.9293" stroke="#000000" stroke-width="0.24" fill-opacity="0" />
  <path d="M600.6258,716.8237 L592.3114,700.7979 L581.7421,691.0699 L577.9001,707.7747 L593.2281,718.2287 L597.0067,743.9292 L604.7155,729.6405 L617.0769,758.6344 L638.3194,742.8331 L604.7155,729.6403 L593.2281,718.2287" stroke="#000000" stroke-width="0.24" fill-opacity="0" />
  <path d="M576.6334,612.0267 L579.3337,620.1292 L571.4883,641.8034 L557.8884,662.5688 L553.6639,682.6476 L560.8265,680.6885 L584.9405,649.7387 L573.1477,676.1793 L581.7421,691.0699 L584.9405,649.7387 L593.9606,666.5593 L587.8515,678.8146 L587.4092,696.2978 L600.4869,708.3617 L612.419,715.6957 L620.1614,720.4934 L634.9874,715.6832 L612.419,715.6957 L620.1617,720.4934 L600.6258,716.8237 L600.4858,708.301 L587.8519,678.8148 L581.7421,691.0699" stroke="#000000" stroke-width="0.24" fill-opacity="0" />
  <path d="M620.4281,680.1183 L618.8231,667.0966 L604.6857,681.8632 L623.6009,704.1454 L607.9299,694.8408 L614.0538,660.6595 L598.6513,670.2696 L604.6857,663.9402 L614.0538,660.6596 L602.3203,678.6493 L600.4858,674.4591 L595.6762,682.2194 L602.3204,678.6492 L604.6857,663.9402" stroke="#000000" stroke-width="0.24" fill-opacity="0" />
  <path d="M624.0933,643.3022 L607.2187,647.937 L614.0538,660.6595 L613.0649,645.3832 L618.8231,667.0966 L626.72,672.6061 L627.5742,702.1274 L620.4281,680.1183 L633.0864,671.7485 L637.671,692.9482 L627.5742,702.1274 L636.4257,710.5611 L634.3041,696.009 L633.0864,671.7485 L627.5742,702.1274" stroke="#000000" stroke-width="0.24" fill-opacity="0" />
  <path d="M627.4536,620.6896 L624.0928,643.3018 L618.7589,639.5301 L607.2187,647.937 L606.7935,640.1343 L591.9759,626.9084" stroke="#000000" stroke-width="0.24" fill-opacity="0" />
  <path d="M606.7935,640.1343 L618.9227,639.5219 L615.3844,625.0704 L617.4254,613.139 L618.7589,639.5297 L627.4534,620.6898 L617.4254,613.139 L619.8549,605.2554 L627.3947,620.6456 L627.2432,601.6359 L619.8549,605.2554 L619.1409,594.049 L623.1921,597.8418 L620.752,583.217 L619.1409,594.049 L627.2432,601.6359" stroke="#000000" stroke-width="0.24" fill-opacity="0" />
  <path d="M571.4131,651.5526 L579.4676,634.2126 L584.9405,649.7387 L585.9059,634.6796 L590.7943,654.7335 L591.9761,626.9085 L593.9348,640.1013 L607.2184,647.9368 L591.9759,626.9084 L594.6697,618.064 L606.7935,640.1343 L611.4608,632.1577 L604.0924,626.8059 L602.1391,615.8937 L611.4608,632.1577 L615.2387,616.2671 L602.1391,615.8937 L614.1054,608.71 L602.5683,601.1951 L606.6987,591.5548 L606.7746,600.548 L614.1052,608.7099 L615.2385,616.2675 L602.1391,615.8937 L602.5683,601.1951 L606.7746,600.548" stroke="#000000" stroke-width="0.24" fill-opacity="0" />
  <path d="M596.7726,557.6511 L589.6752,573.6642 L592.8141,566.582 L590.688,582.6903 L589.6752,573.6642 L589.0729,590.9592 L591.418,589.196 L592.3386,609.6053 L589.0732,590.9589 L586.9656,603.4398 L591.9759,626.9084 L576.6337,612.0266 L592.3386,609.6053 L594.6697,618.064 L591.9761,626.9085 L585.9059,634.6796 L579.4676,634.2126 L591.9759,626.9084 L579.3337,620.1292 L579.4676,634.2126 L571.4883,641.8034 L571.4131,651.5526 L557.8884,662.5688 L560.8265,680.6885 L571.4131,651.5526 L584.9405,649.7387 L590.7943,654.7335 L581.7421,691.0699 L573.1477,676.1793 L567.0211,718.8907 L581.7421,691.0699 L593.2281,718.2287 L580.6127,743.9292 L577.8999,707.7746 L567.0211,718.8907 L556.342,737.602 L533.6536,743.9294 L547.8053,726.912 L533.6536,736.0947 L524.2772,738.4866 L513.3881,743.9294 L490.2879,743.9293 L524.2772,738.4866 L533.6536,743.9294 L567.0211,718.8907 L580.6127,743.9292 L556.3417,737.6017" stroke="#000000" stroke-width="0.24" fill-opacity="0" />
  <path d="M591.2426,505.0914 L590.4579,532.2181 L584.1081,527.4025 L579.2107,544.8487 L581.3341,553.0641 L586.5648,550.7634 L582.9022,557.2768 L589.5826,567.3887 L589.6752,573.6642 L580.8918,576.4807 L573.1575,595.4005 L580.1972,585.2073 L586.9656,603.4398 L573.1575,595.4005 L576.634,612.0266 L567.1111,602.5802 L566.4946,606.8446 L558.5513,615.0935 L561,620.6637 L541.1047,627.8873 L530.3972,630.3167 L528.0674,626.7565 L511.5059,634.5412 L512.6175,629.1945 L497.0156,647.6445 L509.5442,643.9776 L510.6458,649.9601 L497.0156,647.6445 L490.9252,660.3412 L501.9113,656.9968 L495.9453,666.7684 L490.9252,660.3412 L490.2521,667.5037 L494.1448,664.4633 L490.9255,660.3412 L490.6809,645.9557 L497.0156,647.6445 L501.9113,656.9968 L510.6458,649.9601" stroke="#000000" stroke-width="0.24" fill-opacity="0" />
  <path d="M579.2552,493.974 L576.1218,504.5417 L569.9236,516.888 L569.1512,525.3769 L569.4363,530.5714 L575.7332,534.7863 L571.3026,540.413" stroke="#000000" stroke-width="0.24" fill-opacity="0" />
  <path d="M590.7234,457.0224 L593.1686,469.1483 L593.4091,480.4474 L600.3928,486.8682 L591.2426,505.0914 L583.1967,502.615 L586.3207,493.6404 L579.2552,493.974 L577.9557,506.4754 L570.9421,520.649 L576.5948,519.9373 L576.2412,530.4055 L581.2259,532.9069 L577.8277,536.1577 L576.2412,530.4055 L581.5964,529.5136 L576.5948,519.9373 L574.7241,510.6651" stroke="#000000" stroke-width="0.24" fill-opacity="0" />
  <path d="M537.6901,486.74 L541.7806,487.6325 L537.8636,488.9713 L533.1035,488.7734 L531.2846,494.525 L536.8222,497.3014" stroke="#000000" stroke-width="0.24" fill-opacity="0" />
  <path d="M535.8098,619.8816 L540.463,622.3335 L534.1011,614.9253 L539.8711,594.8181 L540.4245,620.5556 L544.4175,618.0205 L540.1052,605.7032" stroke="#000000" stroke-width="0.24" fill-opacity="0" />
  <path d="M613.7608,457.8285 L601.4357,473.0337 L610.0746,449.8809 L593.1686,469.1483 L601.4357,473.0337 L600.3928,486.8682 L586.3207,493.6404 L591.2426,505.0914 L581.1699,515.3433 L584.1081,527.4025 L586.5648,550.7634 L596.7726,557.6511 L589.5826,567.3887 L580.8918,576.4807 L589.0729,590.9592 L586.9659,603.4401 L576.6337,612.0266 L566.4307,606.812 L561,620.6637 L558.5513,615.0935 L541.1047,627.8873 L540.463,622.3336 L530.3972,630.3167 L528.0674,626.7565 L510.0993,627.5946 L498.2234,614.9231 L491.5509,618.9629 L484.9398,612.0457 L498.2234,614.9231 L528.0674,626.7565 L534.821,626.8079 L540.463,622.3335 L531.5859,624.0441 L520.1425,607.0288 L523.2366,598.9386 L518.1989,600.682 L520.91,589.4546 L523.2366,598.9386 L515.3328,601.6736 L520.1425,607.0288 L522.8324,622.1462 L531.5859,624.0441 L535.8098,619.8816 L520.1425,607.0288" stroke="#000000" stroke-width="0.24" fill-opacity="0" />
  <path d="M568.2618,454.2577 L590.7234,457.0224 L610.0746,449.8809 L627.9291,449.4198 L613.7608,457.8285 L610.0746,449.8809 L593.1686,469.1483 L579.2552,493.974 L583.1967,502.615 L581.1699,515.3433 L590.4579,532.2181 L586.5646,550.7631 L579.2107,544.8487 L581.3341,553.0641 L569.6076,561.9611 L559.9211,565.7627 L555.2111,577.762 L539.3195,573.3722 L530.5219,556.6583 L532.8439,552.3959 L537.3006,550.0857 L541.5297,551.7454 L532.8439,552.3959 L534.4377,561.7087 L530.5219,556.6583 L543.3491,573.202 L539.3195,573.3722 L557.2313,572.6155 L555.2111,577.762 L569.6076,561.9611 L579.9063,547.5395" stroke="#000000" stroke-width="0.24" fill-opacity="0" />
  <path d="M546.981,457.832 L558.0527,456.1934 L559.6891,458.4745 L552.4498,463.2346 L550.2183,469.1349 L550.2183,478.01 L553.3724,476.866 L551.7816,472.48 L550.2183,478.01 L553.3445,466.9495 L550.2183,469.1349 L560.5671,461.901 L552.4498,463.2346 L568.6841,460.5675 L559.6891,458.4745 L572.7544,461.5147 L576.4404,470.0388 L579.1819,478.098 L553.9857,501.1572 L568.5381,484.1457 L560.9272,499.6696 L553.9855,501.1571 L535.8817,511.782 L561.2651,506.1588 L549.6985,511.7013 L553.9855,501.1574 L561.2651,506.1588 L560.9272,499.6696" stroke="#000000" stroke-width="0.24" fill-opacity="0" />
  <path d="M543.3472,459.3414 L531.7576,467.8052 L532.9816,476.1922 L543.2684,477.2211 L544.4393,468.3074 L537.5102,471.3326 L543.2684,477.2211 L534.3049,472.5394 L537.5524,463.5734" stroke="#000000" stroke-width="0.24" fill-opacity="0" />
  <path d="M523.0298,440.8356 L528.6227,446.8811 L535.1516,447.4431 L547.214,441.8932 L565.6685,450.0689 L538.3688,457.1543 L520.0495,473.1965" stroke="#000000" stroke-width="0.24" fill-opacity="0" />
  <path d="M509.295,452.8469 L516.5589,458.8201 L565.6685,450.0689 L543.3472,459.3414 L538.3688,457.1543 L531.7576,467.8052 L520.0495,473.1965 L516.4377,492.2957 L523.7816,494.8227 L529.3353,502.3093 L543.8138,496.062 L533.1035,488.7731 L535.037,494.525 L537.1006,491.4931 L536.8222,497.3014 L535.037,494.525 L531.2846,494.525 L533.1035,488.7734 L537.5166,484.509 L537.8636,488.9713 L543.8138,496.062 L537.2682,501.8141 L529.3351,502.3095 L516.4377,492.2957 L525.9033,470.5008" stroke="#000000" stroke-width="0.24" fill-opacity="0" />
  <path d="M504.6016,448.9867 L509.295,452.8469 L500.4597,461.9423 L504.5002,448.9034 L523.0298,440.8356 L516.5589,458.8201 L528.6227,446.8811 L565.6685,450.0689 L572.7544,461.5147 L590.7234,457.0224 L576.4399,470.0387 L593.169,469.1488 L579.1819,478.098 L579.2552,493.974 L593.4091,480.4474 L586.3207,493.6404 L583.1967,502.615 L576.1219,504.542 L577.9557,506.4754 L569.9236,516.888 L569.1512,525.3769 L573.7979,533.4907 L569.4363,530.5714 L573.9542,537.0462 L575.7332,534.7863 L577.101,542.7863 L575.2936,540.1755 L571.3026,540.413 L577.101,542.7863" stroke="#000000" stroke-width="0.24" fill-opacity="0" />
  <path d="M320.0104,619.3224 L335.6549,607.6292 L319.6619,611.6985 L320.2886,625.4083 L312.4518,619.1989 L319.6619,611.6985 L320.2886,625.4083 L302.8781,633.0927 L298.0665,629.2996 L292.8582,636.7363 L302.8781,633.0927 L312.4518,619.1989 L298.0665,629.2996 L280.001,635.7308 L292.858,636.7363" stroke="#000000" stroke-width="0.24" fill-opacity="0" />
  <path d="M320.8076,587.1996 L319.2512,598.046 L310.9496,597.6883 L308.8879,597.5994 L313.3505,610.3923 L319.2512,598.046 L308.8879,597.5994 L304.2769,604.5411 L313.3505,610.3923 L295.2672,626.0731 L304.2769,604.5411 L295.2672,609.4225 L295.2672,626.0731 L280.9346,630.2863 L278.4251,644.9169 L272.3036,645.4064 L265.5183,655.8748 L269.7069,665.5013 L271.5621,651.1442 L279.3428,653.1805 L278.2068,666.8455 L284.0563,660.7712 L279.2052,655.4879 L278.4859,667.5051 L271.5621,651.1442 L278.4251,644.9169 L290.1127,655.9091 L297.5434,648.278 L289.1089,648.0372 L290.1127,655.9091 L277.0199,650.6475 L278.4253,644.9169 L272.3034,645.4067 L280.9346,630.2863 L295.2674,615.896 L313.3505,610.3923 L308.8879,597.5994 L310.9496,597.6883 z" stroke="#000000" stroke-width="0.24" fill-opacity="0" />
  <path d="M425.7614,445.0888 L430.658,450.7264" stroke="#000000" stroke-width="0.24" fill-opacity="0" />
  <path d="M364.797,570.0592 L366.964,582.5737" stroke="#000000" stroke-width="0.24" fill-opacity="0" />
</svg>