<svg xmlns="http://www.w3.org/2000/svg" width="800" height="800" viewBox="0 0 800 800">
  <path d="M315.3655,402.8871 L315.7508,409.641 L317.7189,414.2677 M229.0702,456.2467 L234.1206,459.0627 L235.8894,467.5312 L237.164,475.3603 L223.9341,466.9153 M323.5478,329.1342 L323.4414,314.6318 L321.0219,323.2675 M207.564,382.0009 L208.4536,379.3321 L211.6118,380.1771 M292.1042,394.2171 L292.2572,391.6898 L288.2545,389.3754 L290.515,394.0064 L289.7491,396.0933 L287.1335,396.9719 M274.1217,469.5903 L278.4279,472.3233 L275.0793,476.1765 L274.122,469.5903 L274.8971,459.5334 L278.4278,472.3232 M159.554,453.2752 L163.782,456.6002 L169.3055,457.8924 L157.0529,465.9904 L152.3662,473.6067 L143.6078,470.4744 L139.8069,470.9163 L137.672,467.8918 L133.9358,467.8918 L140.0739,465.4009 L137.672,467.8918 M315.484,296.7137 L311.9261,292.6175 L313.1786,300.4197 L315.484,296.7137 L317.4976,306.2856 L308.6553,309.8167 L313.1785,300.4198 L317.4976,306.2855 L317.8153,313.3322 L308.6552,309.8165 L310.5581,316.9059 L317.8153,313.3322 M312.8357,315.7841 L320.5478,318.4074 L317.8152,313.332 L322.683,313.9983 L320.5477,318.4074 M319.0058,299.0966 L323.5051,296.4441 L321.9478,302.2524 M319.0514,311.538 L321.9478,302.2523 L318.3822,298.4279 L319.0514,311.538 L324.0125,309.612 L321.9476,302.2522 L324.625,304.4172 L324.0124,309.6119 L322.6698,312.676 M330.8412,307.2189 L326.4637,299.1353 L325.2673,308.2988 M326.9402,300.0153 L332.6507,295.1373 L330.8413,307.2188 M332.3271,297.2965 L332.9713,301.8202 L330.8412,307.2187 L328.5357,308.8824 L325.2672,308.2986 M334.4849,308.4888 L331.1283,308.1341 L335.1469,305.1322 M335.1466,305.1323 L336.6794,306.5822 L334.4847,308.4889 L332.8479,311.1169 L336.5539,309.7226 M336.6794,306.5821 L336.5538,309.7225 L334.4846,308.4888 M325.408,315.32 L323.4414,314.6318 L331.1281,308.1342 M321.5217,331.0863 L321.0218,323.2674 L325.7382,334.2215 M335.4437,348.8006 L339.0217,347.7178 L333.3443,342.502 L335.02,340.0398 L339.0217,347.7178 M341.6522,356.908 L339.0649,349.6603 L339.2744,359.084 M324.9118,416.2241 L327.9698,412.5852 L328.6843,424.4159 L325.4608,431.9621 L318.2663,423.3023 L322.4334,410.8425 L314.6288,416.5123 L318.2663,423.3022 L328.6841,424.4156 L322.4334,410.8425 M344.968,338.5867 L339.0217,347.718 L339.3189,343.4325 M345.5289,348.6241 L339.0649,349.6603 L341.6594,345.6844 M341.6596,345.6846 L347.3308,341.5654 L345.5286,348.6242 M350.5119,338.8806 L344.9682,338.5867 L345.0545,340.9521 M358.4439,341.8622 L350.5118,338.8804 L348.8246,343.8077 L358.4439,341.8622 L365.3949,329.8507 L350.5118,338.8804 M336.2301,318.5517 L325.6402,316.3531 L329.6822,311.6256 M326.7202,316.5773 L326.9641,320.5369 L333.3428,317.952 M329.6823,311.6255 L337.01,311.5071 L336.2302,318.5515 M336.4151,316.878 L340.3431,315.6438 L337.01,311.5073 L343.6801,302.6918 L340.3427,315.6442 M363.1678,358.2227 L362.6381,361.4398 L372.2252,363.3566 L363.1677,358.2227 L369.5233,351.4673 L368.154,358.205 L363.1678,358.2227 L351.3614,358.4494 L362.6382,361.4398 L351.2532,363.5292 L351.3612,358.4492 L341.9323,367.8743 M366.9337,360.3573 L368.154,358.2047 L381.2751,350.8109 L369.5234,351.4676 M371.1206,351.3782 L380.1221,347.8457 L381.2753,350.8108 L394.1041,346.3739 L380.1222,347.8454 M384.6931,349.6287 L390.2512,349.6119 L394.1044,346.3737 M390.2514,349.6122 L386.2736,358.407 L388.9293,356.8019 L392.4896,360.4204 L396.7209,352.6872 L388.9292,356.8021 L390.2512,349.6119 L396.7209,352.6872 L394.1044,346.3737 L399.4932,353.3291 L397.0712,358.1443 L392.4895,360.4206 L399.4932,353.3292 L396.7209,352.6874 M336.6394,447.3221 L325.4609,431.9622 L326.9875,443.4081 M318.2663,423.3024 L321.4413,440.64 L326.9878,443.408 M318.104,469.1982 L323.397,464.4391 L326.3773,470.3994 L330.1313,465.1245 L323.397,464.4391 L325.0146,455.8735 L334.9076,455.2898 L335.6265,463.2314 L332.6016,466.5229 L334.9076,455.2898 L336.6398,447.3222 L347.0571,456.6932 L343.8549,465.5887 L335.6265,463.2314 L347.0571,456.6932 L334.9076,455.2898 L326.9875,443.4081 L325.0146,455.8736 L323.1798,441.5077 M330.1308,465.1247 L333.2128,463.5464 L325.0146,455.8736 M295.1671,469.8759 L306.5373,470.2647 L303.4424,474.5679 M304.4645,470.1939 L298.4588,466.0953 L295.1673,469.8761 L293.2544,465.8283 L298.4588,466.0953 L287.4538,447.7468 L293.2545,465.8284 L287.0063,464.1312 L295.167,469.8762 M287.4537,447.7468 L294.315,434.4325 L290.8908,453.4774 M292.603,443.955 L296.0468,437.3726 L294.3151,434.4325 L304.0777,428.1391 L296.0468,437.3726 M299.0651,433.9022 L304.3002,431.9198 L304.0778,428.1395 L309.1925,428.3619 L304.3002,431.9198 M312.5288,434.572 L312.8452,431.943 L309.6132,434.1843 M291.1338,465.2523 L287.006,461.2002 L287.006,464.1312 L280.2539,456.2585 L287.006,461.2002 M280.7969,452.1358 L284.4804,447.9389 L278.8273,447.5521 L279.4532,449.0086 L283.63,458.7294 M280.8395,445.8011 L278.8274,447.552 L277.8376,443.3661 M281.9272,443.8156 L280.8397,445.8009 L284.48,447.9391 M307.7019,464.1306 L313.4661,463.6264 L306.297,458.3663 L307.7019,464.1308 L303.2707,461.2483 M311.9506,469.3678 L317.0692,460.5638 L318.6543,454.8356 L314.6194,448.5308 L308.6026,446.6572 M314.6193,448.5307 L307.5576,448.6385 L309.9355,454.9793 M306.2967,458.3662 L307.5577,448.6385 L303.3315,453.223 L303.6953,448.4745 L307.5576,448.6384 L308.6025,446.6574 L303.6953,448.4745 L301.3783,455.0609 L303.3315,453.2232 L306.297,458.3662 L301.3783,455.0609 L303.2707,461.2483 L306.297,458.3663 L309.9355,454.9796 L313.4661,463.6264 L317.0691,460.5641 L309.9355,454.9796 L314.6193,448.5305 L317.0692,460.5638 L315.3711,468.8015 L306.5374,470.2649 L313.8847,472.4539 M310.6732,391.8225 L313.8314,393.4867 L309.9049,412.7493 L318.4548,397.3074 L313.8314,393.4868 L320.5571,387.7192 L321.6096,382.4559 L323.3606,376.3567 L317.2196,360.6895 L315.9145,374.2449 L323.3606,376.3567 L317.5245,376.9985 L315.2775,380.9964 L320.5571,387.7192 L314.6395,382.421 L312.2847,385.1971 L320.5571,387.7192 L315.751,409.6408 M307.3381,408.7191 L305.9357,412.6969 L309.9048,412.7491 L293.4458,421.6178 L305.7689,418.4989 L309.9049,412.7491 L307.3382,408.7191 L312.5038,400 M303.9651,415.9501 L305.9355,412.6971 L300.2533,415.6525 L307.338,408.7193 L299.275,413.6068 L300.2534,415.6525 L294.2932,412.8505 L299.2751,413.6064 M294.0262,406.0899 L294.2932,412.8505 L296.7396,411.427 L294.0262,406.0899 L297.2191,406.2598 L295.7514,409.4832 L299.7469,408.4618 L297.2191,406.2598 M337.0521,335.1916 L336.9797,340.2713 L335.0198,340.0398 M341.1686,335.878 L337.0518,335.1916 L341.4356,327.249 L341.1686,335.878 L345.4387,327.6045 L341.4355,327.2489 L344.1484,324.5801 L345.4387,327.6045 L347.2779,319.9509 L344.1484,324.5801 M347.2777,319.951 L352.9887,316.6563 L345.4386,327.6047 M365.6014,362.0323 L369.6593,365.687 L372.225,363.3566 L376.2848,374.8745 L369.6593,365.687 M374.3942,388.2596 L372.9169,381.9907 L376.285,374.8744 M361.7502,387.5125 L361.4817,381.2834 L359.5381,385.7396 M361.6158,384.3979 L368.3367,378.7775 L361.4816,381.2833 M370.3928,381.6143 L368.3365,378.7777 L368.1947,384.5453 M369.2939,383.0798 L369.755,386.0107 L368.1948,384.5454 L363.8215,386.5781 L363.6087,385.0414 M368.2656,381.6614 L365.3346,383.0797 L368.1946,384.5454 L363.609,385.0415 L365.3346,383.0797 M363.8217,386.5782 L366.1857,388.7293 L368.3838,388.4456 L369.7551,386.0107 M368.3838,388.4454 L368.1949,384.5453 L366.1856,388.7292 M371.287,389.2795 L370.522,394.2989 L374.3943,388.2596 L366.0858,390.987 L363.4146,391.1523 L359.5379,385.7395 L366.0858,390.987 L373.6555,385.1255 M370.9706,391.3556 L365.9555,396.327 L370.5219,394.2986 M334.9847,370.0615 L332.3672,367.7406 L334.0415,372.4757 L338.5807,369.4369 L339.2742,359.0842 L334.0415,372.4758 L324.8032,395.3859 L320.557,387.7193 L334.0414,372.4758 L337.5443,377.1424 L338.5805,369.4366 L351.2534,363.5292 L337.5442,377.1425 L324.8033,395.386 L322.4336,410.8425 L315.751,409.6408 L324.8033,395.3861 L328.1776,394.5411 L333.2368,383.3109 L338.8969,381.5978 M329.7845,374.9758 L324.7029,357.0357 L332.3676,367.7406 L326.1711,354.6588 L324.7029,357.0357 L317.3249,344.831 L326.1711,354.6588 M309.9749,341.154 L304.3004,335.6137 L317.3248,344.8312 L309.9752,341.1538 L319.7018,348.7624 M306.4286,337.6915 L291.6692,332.062 L304.3004,335.6137 M303.9234,341.6681 L306.0725,337.5556 L301.6747,338.8344 L293.3127,339.9464 L298.7394,343.06 L301.6747,338.8344 L304.623,342.55 L298.7393,343.06 L289.6765,348.5678 L293.313,339.9464 M292.1292,342.7525 L281.0543,348.5972 L289.6761,348.5679 M284.5331,336.6748 L291.669,332.0619 L276.4989,330.2975 M283.4338,335.802 L273.2983,335.8178 L266.7778,328.6124 L276.4987,330.2976 L273.2983,335.8178 L265.7286,338.5926 L266.7778,328.6124 L261.6429,333.2813 L265.7286,338.5926 M261.6427,333.2814 L249.1232,328.2074 L266.7776,328.6124 M303.9599,349.1866 L308.4578,339.6728 L303.3215,345.1446 M303.3214,345.1447 L299.0263,345.0273 L292.4693,353.2776 L303.9598,349.1867 L299.0263,345.0273 M310.6139,351.4659 L309.9749,341.154 L306.5153,348.6183 L299.7642,353.2384 L308.5102,354.0422 L306.5153,348.6183 M310.6735,391.8224 L316.3567,391.3211 L307.465,387.7382 M306.938,391.2095 L303.2612,393.0477 L307.4652,387.7384 M310.9258,392.5159 L306.938,391.2094 L308.1344,396.3456 L303.2607,393.048 L306.9308,399.0398 L308.1344,396.3456 L311.2331,397.2673 L310.9258,392.5159 L308.1344,396.3456 M317.4419,374.6777 L317.5244,376.9985 L321.6096,382.4559 L315.2775,380.9964 M314.6396,382.4209 L313.137,373.9553 L312.2843,385.1975 M312.7596,378.932 L309.2502,382.418 L313.1374,373.9553 L308.7334,376.8465 L309.2502,382.418 L302.9841,386.1245 L308.7334,376.8465 L297.9403,378.1622 L302.9841,386.1245 L296.5714,385.4401 L297.9403,378.1622 L290.1942,373.5867 L296.5714,385.4401 L291.9959,381.8011 L290.1942,373.5867 L292.3199,366.4891 L303.148,362.9576 L309.9183,368.1231 L308.7334,376.8465 L306.358,368.0354 L297.9403,378.1622 L297.0781,367.4516 L290.1942,373.5867 M292.32,366.4893 L297.0782,367.4517 L303.1481,362.9577 L306.3581,368.035 L297.0782,367.4517 M306.3582,368.0353 L309.9185,368.123 L313.1371,373.9552 M330.7072,388.926 L338.8972,381.5978 L340.9017,385.2468 L342.1306,379.1011 L338.8972,381.5978 L338.3724,387.4449 L340.9017,385.2468 L343.2652,386.8774 L338.3724,387.4449 M342.1307,379.101 L344.8254,383.1665 L340.9013,385.2467 M305.7687,418.4991 L298.6073,422.579 L281.9484,419.477 L290.0905,423.4399 L298.6073,422.579 M277.0478,413.6321 L281.9482,419.4769 L279.7928,410.577 L277.0478,413.6321 L280.6703,399.1724 L279.7926,410.5771 M286.4485,392.5188 L280.6704,399.1725 L286.9159,395.5538 M289.7491,396.0934 L292.1044,394.2169 L290.515,394.0065 L292.2574,391.6895 L290.6862,389.3562 L288.2546,389.3754 L286.3168,391.6612 M285.0046,407.0945 L279.9287,408.8104 L282.5549,402.0507 L285.0046,407.0945 L289.8322,406.7701 L294.0113,398.8442 L294.4801,396.4664 L289.7603,396.9706 L294.0113,398.8442 M282.5547,402.0504 L289.7602,396.9707 L289.8321,406.7702 M281.9657,392.4586 L278.4908,398.7606 L277.3725,406.606 L274.3854,397.7603 L284.9432,390.3761 L284.6561,384.1249 L280.0581,376.3697 L278.9873,368.9125 L273.6315,385.6573 L280.0581,376.3697 M284.6557,384.1248 L274.3856,397.7603 L273.6316,385.6572 M267.686,404.2964 L275.4288,410.062 L271.475,389.4704 L266.1484,396.6087 L272.4087,396.0043 M271.475,389.4701 L267.6295,383.4207 L269.204,392.5137 M271.7805,419.2236 L275.42,411.3725 L263.9534,403.0977 L266.2004,409.4888 L264.981,413.5327 M275.42,411.3725 L276.5957,414.7291 L272.823,416.9747 M264.9808,413.5328 L275.4197,411.3725 L266.2007,409.4888 M335.8608,467.1825 L332.602,466.523 L328.4113,477.0841 M332.6017,466.523 L327.3604,472.5609 L328.4115,477.0843 L320.4433,479.8394 L327.6545,473.826 M326.6458,477.6946 L323.7747,480.3184 L320.443,479.8396 L321.8982,482.8731 L313.3957,483.4497 L314.9449,485.9354 L316.3853,483.2469 M339.5738,483.6153 L335.758,489.5161 L336.836,481.2734 L339.5738,483.6153 L343.855,465.5888 L355.789,473.1431 L347.0574,456.6931 L359.9685,464.6046 L355.789,473.1431 L367.7866,474.0797 L376.5124,473.9411 L377.2975,467.9191 L367.7866,474.0797 L359.9685,464.6046 L368.0387,467.631 L377.2976,467.9191 L387.122,464.8291 L393.6512,461.7117 L399.9153,462.0898 L387.122,464.8291 L393.5429,471.3827 L385.4478,475.2972 L387.122,464.8291 L376.5125,473.9413 L385.4479,475.2972 L380.6381,478.0163 L376.5127,473.9412 L373.9513,486.9832 L380.6381,478.0163 M329.4978,492.5387 L337.1035,500.723 L335.7581,489.5162 M343.428,494.3242 L339.2422,492.2147 L353.5156,484.1642 L343.428,494.3242 L337.1035,500.723 L339.2422,492.2147 L335.7581,489.5162 L353.5156,484.1642 L370.7684,475.2625 L376.5124,473.941 L371.1408,478.192 L357.2705,487.3795 L345.3659,492.3724 M370.7683,475.2623 L371.1412,478.1924 L353.5155,484.1646 L357.2704,487.3793 L368.6546,482.95 L363.6194,491.7746 L359.6469,492.9316 L360.1804,502.5835 L363.6194,491.7746 L371.0023,484.7378 L369.0373,493.4047 L373.2308,494.4932 L373.2686,500.0964 L369.0373,493.4047 M371.141,478.1922 L371.0025,484.7376 L373.2308,494.4935 L373.9512,486.9832 L371.141,478.1922 L368.6548,482.9498 L373.9512,486.9832 M373.2688,500.0963 L382.2684,499.2048 L373.2473,496.8859 M376.4817,499.7781 L384.3965,501.1983 L382.2684,499.2048 L383.9368,495.1096 L384.3965,501.1983 M377.9845,492.9279 L379.4014,496.8338 L382.4076,496.6804 M334.9769,484.1268 L324.3683,491.6424 L325.2896,497.179 L329.4979,492.5387 L331.6457,507.3384 L337.1036,500.723 L334.4463,509.7541 L339.5533,504.8671 L355.3677,509.7541 L334.4464,509.7543 L331.6458,507.3383 L325.2896,497.1789 L309.3453,501.8537 L324.3684,491.6424 L329.4976,492.5387 L336.8358,481.2735 M317.6625,491.5343 L301.6947,493.3135 L300.4495,489.1325 L305.9203,488.5099 M264.259,463.0168 L270.2781,469.5925 L263.4901,453.4622 M270.2781,469.5925 L267.1147,450.1128 L263.4902,453.4622 L260.3924,449.7264 L263.4384,442.1662 L263.4663,448.2467 L263.4904,453.462 M260.3924,449.7264 L258.8236,426.2766 L263.4384,442.1663 M273.5192,462.4675 L270.2781,469.5925 L270.2628,447.4867 M282.2864,477.819 L278.7007,481.143 L279.0315,476.5167 M279.0315,476.5169 L278.6614,467.5629 L282.2864,477.8187 M297.6957,475.8416 L291.48,481.4155 L295.8283,483.1372 M288.8057,483.7383 L284.097,483.2537 L288.6202,480.5399 L286.5774,475.3456 L280.1724,463.0537 L284.097,483.2537 L286.5774,475.3456 M241.2293,486.978 L256.8947,501.4243 L238.4912,489.572 L241.2295,486.9779 L238.7582,478.4371 L238.4912,489.572 M242.2836,461.1192 L238.7583,478.4372 L237.0117,467.7088 M239.5454,474.5709 L243.3118,470.5912 L241.2335,466.2784 L248.3824,458.7599 L253.1861,457.3814 L257.4562,451.9546 L252.9084,462.5775 M253.1862,457.3812 L252.7414,465.6987 L243.312,470.5915 L248.3826,458.7602 L252.7414,465.6987 M240.8843,458.2728 L247.5635,456.2079 L242.2834,461.1194 M244.2239,457.2403 L250.0854,450.6953 L247.5633,456.2078 M250.0853,450.6954 L251.3823,452.7493 L253.0757,450.0469 L250.0853,450.6954 L251.2639,449.0998 L253.0757,450.0469 M241.7944,446.5908 L247.2657,439.8301 L242.1951,449.9029 M239.8384,455.1352 L236.9908,448.2365 L237.4816,460.3674 M234.4507,443.6885 L236.991,448.2367 L234.8111,438.14 L234.4507,443.6885 L232.6495,441.8149 L230.3795,440.9143 L230.9202,437.1316 L234.8112,438.14 L230.3795,440.9143 M240.4828,460.8373 L242.1949,449.9029 L237.4819,460.3676 L234.2657,454.5613 L237.0117,467.7088 L237.482,460.3677 L242.2837,461.1193 M231.6145,454.6971 L234.2656,454.5615 L228.9299,449.0067 L230.3889,448.0146 M223.934,466.9153 L235.8895,467.5312 L229.0703,456.2468 L225.4017,441.9475 L223.5333,456.9811 L229.0703,456.2468 M224.0003,509.7544 L233.1513,504.6655 L235.0249,509.7544 L239.0238,505.6021 L255.5606,509.7544 M239.0238,505.6021 L233.1513,504.6656 L225.9818,501.5309 L224.0004,509.7544 L218.6441,488.0071 L222.9315,477.7394 L225.9818,501.5309 L218.6441,488.0071 L216.0381,486.3439 L215.5664,478.2604 L222.9315,477.7394 L216.0381,486.3439 M222.9314,477.7394 L203.5141,464.2037 L195.4938,445.7742 L193.7309,454.4517 L203.5141,464.2037 L215.5664,478.2604 M212.2834,474.4314 L196.7532,463.2246 L203.5139,464.2034 M196.7532,463.2247 L193.169,458.0275 L193.7312,454.4519 M191.9127,433.2397 L192.8867,421.1908 L189.9006,428.8119 L189.1529,418.1156 L192.8867,421.1908 L201.6514,400.9639 L189.1528,418.1157 L186.6013,423.3354 L189.806,439.6061 M201.6515,400.9638 L209.6986,394.1849 L197.2691,411.0773 M214.4138,370.8368 L214.582,379.4811 L212.279,377.8199 L214.4138,370.8368 L206.2742,371.2815 L213.3464,374.3285 M206.2742,371.2813 L205.3846,379.0653 L208.3524,372.1767 M210.5887,376.4855 L206.8684,375.6209 L208.4536,379.3322 L205.3846,379.0652 L207.564,382.001 L211.6118,380.1772 L210.5889,376.4856 L208.4536,379.3322 M227.9373,373.3471 L217.7007,377.9427 L217.9212,375.1484 M217.9215,375.1485 L220.575,368.9127 L227.9372,373.3473 L226.2778,361.3875 L220.575,368.9127 L221.6903,359.7684 L222.8642,350.2373 L223.9359,358.492 L221.6903,359.7684 L226.2778,361.3875 L223.9359,358.492 M219.1064,392.4459 L213.8867,395.6721 L204.8627,400.7567 L216.8982,396.6164 L213.7199,403.5664 L204.8627,400.7567 M214.6411,401.5521 L218.9089,401.5367 L216.8982,396.6161 L226.9283,390.8299 L218.9089,401.5367 M208.2379,402.845 L201.9135,404.7651 L202.7623,406.9613 M213.9722,406.642 L199.1241,408.5563 L200.5203,412.0491 M204.0633,412.0735 L199.3079,415.3448 L196.7814,417.0828 L195.7716,414.5329 L204.0633,412.0735 L212.653,415.6703 L199.3081,415.3448 M196.1708,423.2759 L192.8866,421.1909 L199.9056,417.1536 M197.125,421.7116 L212.2208,418.5956 L199.9054,417.1538 M195.4991,428.9357 L192.524,425.6769 L203.991,423.6537 M201.9509,428.2975 L197.375,434.8267 L191.9127,433.2397 M195.4936,445.7743 L200.4238,438.1681 L198.5372,452.7688 M199.8852,442.3369 L204.8719,437.8123 L206.6952,427.1816 L200.4239,438.1679 L204.8718,437.8123 L203.8508,441.976 L212.6347,440.0794 L218.7631,440.2543 L213.0866,443.6234 M205.5387,443.8166 L204.916,454.2248 L199.8852,442.3369 M205.4386,445.4931 L208.9635,449.3319 L204.9162,454.2247 M217.1094,416.7257 L206.6954,427.1818 L217.1093,424.1204 L217.1093,412.0221 L223.6557,408.4752 L227.0061,403.4314 L234.536,403.7559 L230.2486,412.7267 L217.1093,424.1204 L223.6557,408.4752 L230.2486,412.7267 L227.0061,403.4314 M228.504,403.496 L235.6669,395.8749 L234.5357,403.7558 M235.2899,423.6375 L229.5957,419.1258 L221.7182,430.5578 L215.3587,431.8682 L206.0169,431.1376 L219.1433,426.4647 L229.5956,419.1255 L234.8344,413.6758 L235.2898,423.6373 L222.6394,429.2208 M215.3589,431.8682 L219.143,426.4649 L221.7179,430.5577 M235.0876,419.2153 L246.4549,410.7191 L234.8345,413.6759 M166.6758,463.6536 L172.9087,459.1505 L187.2737,459.4283 L193.1688,458.0274 L184.5306,454.2922 L187.2737,459.4285 L196.7531,463.2246 L193.731,454.4518 L189.7695,443.791 L195.4934,445.7744 L195.1517,440.3658 L189.7695,443.791 L189.9004,428.812 L195.1517,440.3658 M184.5305,454.2922 L172.9087,459.1505 L169.9902,458.826 L166.6758,463.6537 L164.8462,466.3188 L161.8481,467.0766 L169.9902,458.8262 L173.377,456.2322 L172.9088,459.1502 M161.8481,467.0764 L162.0173,471.8801 L164.8462,466.3187 L164.4297,477.5773 L162.0173,471.8802 M164.5614,474.0109 L170.4459,480.0526 L164.4296,477.577 M167.7271,475.2849 L168.6513,478.2101 L170.848,475.6103 L170.4459,480.0526 L174.3901,477.8506 L170.848,475.6103 L172.3032,474.8065 L170.5226,472.1066 L170.848,475.6104 L167.7272,475.285 L170.5225,472.1067 L174.0646,474.1553 L172.303,474.8063 L174.3899,477.8504 L174.0645,474.1554 M158.5882,476.8722 L159.0277,469.2392 L161.1362,464.9585 L155.4166,470.3282 L153.8656,475.9385 L145.1896,484.7794 M159.0275,469.2393 L155.4164,470.3279 L158.5885,476.8719 L153.8659,475.9387 M158.5883,476.872 L156.3916,483.4616 L150.2751,481.7782 M139.807,470.9162 L140.074,465.4008 L143.608,470.4743 L143.3654,463.1773 L154.0401,462.8658 L157.053,465.9906 L163.782,456.6002 M152.3663,473.6068 L154.0401,462.8659 L143.6079,470.4745 M154.0402,462.8657 L160.4174,461.2955 L154.3738,459.2589 L148.1044,453.2464 L150.8226,442.4576 L150.6031,438.1745 L155.4906,442.9518 L150.8226,442.4576 L159.5537,453.2752 L154.3738,459.2589 L150.8226,442.4576 M155.4904,442.9518 L159.554,453.2752 L160.4173,461.2955 M153.0468,440.563 L152.8857,433.0992 L150.6032,438.1747 M211.2351,438.1642 L217.0448,434.218 L218.6184,438.018 L224.3112,431.2122 L224.0461,440.7031 M236.6607,430.564 L239.9674,425.4526 L232.6282,429.403 L224.0462,440.7032 L218.6185,438.0181 L211.2352,438.1642 L205.4566,434.4026 L217.0449,434.218 L224.3112,431.2123 L232.6282,429.4029 L239.5422,431.3939 L228.3372,435.0529 M203.8507,441.9762 L213.364,445.7991 L212.6345,440.0795 L204.8716,437.8124 M251.496,488.0099 L260.5143,477.5518 L251.1116,480.5969 M255.285,474.0623 L261.3804,470.2183 L259.478,476.8606 M258.3595,499.6642 L262.2736,492.1917 L269.7906,494.0601 L270.4578,488.7225 L262.8962,485.1641 L262.1379,475.9335 L265.5156,469.7097 L264.3149,465.2171 L267.962,468.7309 L265.5156,469.7097 L267.6955,475.2692 L270.4579,488.7225 L262.2737,492.1918 L262.8964,485.1642 L267.6952,475.2693 L262.1376,475.9336 M272.0183,491.8333 L274.3866,489.7655 L278.9357,494.7513 L272.3518,499.297 L256.8949,501.4245 L256.5882,505.3247 L272.3517,499.2969 L272.0181,491.833 L278.9355,494.7516 L280.8092,487.2576 L271.0955,481.1368 L274.3869,489.7653 L280.8092,487.2576 M333.1557,437.2907 L336.1754,439.9969 L336.6396,447.3221 L328.6843,424.4158 L330.6408,414.1926 L327.9701,412.5855 M336.1754,439.9968 L341.8484,452.0078 L342.1307,443.5714 L339.3727,446.7664 M341.9895,447.7895 L345.8504,442.2837 L342.1309,443.5716 L339.5072,440.0966 L345.8503,442.2836 L345.9369,444.8953 L343.2163,445.8385 M339.5072,440.0968 L339.5815,433.4128 L343.3416,441.4187 M346.0398,427.0545 L339.5816,433.413 L342.8122,419.5902 L346.0398,427.0545 L350.5765,431.4133 L342.2552,439.1048 M344.426,423.3223 L347.5966,412.5541 L342.8126,419.5904 M334.9175,403.4816 L336.1427,414.4343 L331.3869,412.7409 M336.1427,414.4343 L337.9439,411.696 L335.5301,408.9582 M336.5529,421.9921 L330.6445,421.1993 L334.3553,415.9034 M333.5988,421.5956 L334.1031,425.7029 L336.5533,421.992 M329.9407,412.0345 L327.4311,410.4877 L327.0811,406.6355 M331.8668,400.2741 L329.649,408.2407 L327.8981,403.3086 M337.8219,395.3855 L335.1196,393.6921 L334.7232,396.5742 M339.1336,407.1545 L343.6727,405.0652 L342.0516,402.0748 M331.0991,396.8509 L331.0632,393.4282 L329.0817,398.0037 M340.2141,399.733 L339.2415,398.0037 L341.3673,397.5713 M349.2211,401.2462 L347.8522,400.1654 L347.2755,402.1109 M354.1211,400.1297 L352.2115,400.0573 L353.0043,401.7867 M358.4803,398.9767 L356.715,398.0037 L356.8593,399.9851 M350.339,407.235 L347.1324,405.1457 L347.3845,409.3248 M356.8239,405.8663 L355.7791,405.2896 L357.3282,403.3801 M357.4724,410.5856 L356.4995,408.7125 L355.0586,410.8741 M362.5522,405.1814 L364.1013,406.5148 L362.5522,407.4514 M352.1693,393.7726 L349.5034,393.9888 L349.9717,396.0781 M347.0536,394.2408 L344.0272,393.7006 L345.5404,392.1515 M342.3703,388.3321 L344.7117,390.2057 L341.8296,392.0793 M337.2899,392.4396 L339.1635,390.0977 L339.9203,392.4032 M347.5218,388.3324 L350.332,385.7024 L347.8463,385.306 M352.6962,383.6982 L350.6064,382.8335 L352.804,381.176 M348.9853,377.5017 L348.8051,380.2755 L346.6074,380.2755 M357.2799,374.4926 L355.389,373.1218 L355.0343,375.7455 M359.0293,377.3769 L357.2329,376.1475 L356.5475,378.4405 M346.4774,373.5945 L344.6575,372.909 L344.8228,374.9183 M352.06,444.0172 L345.0348,446.7914 L344.0623,451.9435 M349.4661,451.2588 L345.8995,451.439 L349.8984,447.4401 M353.7174,451.6551 L351.9521,450.5383 L351.9162,452.8438 M350.1868,439.2256 L349.07,437.4962 L347.7007,440.6304 M348.2054,442.7564 L350.4391,442.7205 L349.6103,441.4954 M356.5638,436.6677 L354.15,434.0737 L353.3931,437.9288 M355.5112,458.5139 L353.5657,457.5414 L355.3669,455.9203 M362.0682,461.6124 L360.8072,460.0992 L362.2844,458.0458 M366.3557,460.9637 L362.9688,463.9182 L363.4012,455.8481 M370.787,459.0546 L368.6612,458.9103 L369.5978,457.2169 M369.4178,464.0622 L368.9135,462.2609 L371.0393,462.189 M345.8217,466.8338 L348.6554,470.4411 L355.789,473.143 M402.1254,494.3376 L397.4061,492.9683 L400.7929,497.6521 M387.122,464.829 L389.0014,462.5336 L393.6512,461.7116 L390.7226,459.8327 L389.0014,462.5336 M392.4268,460.9258 L393.7665,454.401 L390.7229,459.8325 L386.7935,461.7287 L393.7665,454.401 L393.8168,444.3 L388.4332,439.8453 L390.3006,450.1759 L393.8168,444.3 M393.7665,454.4009 L390.3006,450.1758 L386.7935,461.7286 L378.4138,460.5452 L373.671,456.5334 L372.4161,449.2671 L375.2177,444.1605 L382.4754,439.1531 L388.4332,439.8452 L382.5922,446.1279 L382.4753,439.153 M372.4161,449.2672 L374.7355,452.2293 L375.2176,444.1602 L382.5922,446.1278 L374.7354,452.2295 L381.8268,454.8849 L378.414,460.545 L374.7352,452.2295 L373.6711,456.5337 M381.8268,454.8849 L390.301,450.1757 L382.5922,446.1278 L381.8266,454.8848 L386.7932,461.7288 M401.5571,509.7544 L406.8055,505.1568 L414.812,491.5909 L419.0169,460.5273 L413.0639,467.4663 M412.4377,479.4665 L413.0637,467.4665 L414.8117,491.5911 L390.3204,509.7545 L406.8058,505.157 M408.2908,478.3194 L411.6177,478.6985 L413.4564,480.4203 L412.8141,485.0605 L409.0496,488.0662 L404.4386,486.6072 L404.0302,480.9163 L408.2908,478.3194 L407.0049,483.2999 L411.6177,478.6985 L412.8141,485.0605 L407.0049,483.2995 L409.0497,488.0661 L411.8844,490.0696 L412.8142,485.0603 M400.7928,497.6519 L410.2726,494.9572 L402.1257,494.3374 L396.7651,482.7428 L401.8219,471.976 L404.8598,465.2273 L407.9294,450.6381 L410.0642,463.8037 L404.8598,465.2273 L399.9152,462.0897 L401.8217,471.9758 L393.5431,471.3829 L399.9152,462.0897 L407.9294,450.6381 L393.6512,461.7116 M411.8845,490.0694 L410.2726,494.957 L406.7502,494.6895 L410.6378,489.1885 L410.2726,494.957 M404.0302,480.9163 L407.0048,483.2995 L404.4386,486.6072 M408.3387,476.6894 L404.9111,478.5568 L406.3769,472.6708 M411.2459,476.9024 L409.7097,477.5403 L409.1661,474.6568 M400.4674,483.19 L401.6255,477.1622 L403.0912,484.939 M406.7889,489.3116 L401.8251,486.6404 L402.3217,489.7133 M405.3237,491.9587 L404.1417,490.3516 L406.7655,490.1387 M411.5132,491.1956 L414.8118,491.5911 L425.2616,471.3469 L434.1394,453.5376 L431.8387,444.9449 L432.6976,424.7272 L428.2865,430.3734 L431.8387,444.9449 L425.2616,471.3469 L419.0168,460.5274 L410.0642,463.804 L427.5854,441.3157 L417.7562,442.6338 L410.0642,463.804 M417.811,435.55 L407.9291,450.6382 L417.7564,442.6337 M427.5856,441.3155 L423.6088,430.0345 L417.7564,442.6336 M415.0161,506.9096 L424.4408,509.7543 L433.6071,491.0804 L436.3526,509.7544 L441.9539,499.372 L450.9356,520.4391 L436.3528,509.7544 L410.206,509.7544 L358.811,509.7545 L383.5075,505.7998 L390.3204,504.0618 L390.3204,509.7545 L383.5075,505.7998 L375.5955,509.7545 M450.9356,520.4393 L466.3704,508.9579 L441.9539,499.3722 L433.6071,491.0806 L425.2614,471.347 L429.3792,475.1455 L438.8805,483.867 L429.7007,462.4423 L429.3792,475.1455 L433.607,491.0806 L422.4697,483.4845 L424.4406,509.7545 L420.771,489.5473 L415.0159,506.9098 L411.4493,509.7545 M432.6974,424.7274 L431.9181,408.3704 L429.3825,411.6618 L423.6088,430.0348 L423.5115,419.8015 L417.811,435.5498 L423.6088,430.0345 L428.2868,430.3738 M434.1206,434.3132 L443.7725,440.0065 L432.6975,424.7275 L434.6546,418.3009 L431.918,408.3705 L430.5882,398.6064 L432.2921,397.3253 M454.6661,433.7714 L452.6453,423.0612 L452.2768,433.8922 M452.6454,423.0609 L450.4713,423.2479 L452.5572,425.6574 L449.1996,427.0474 L451.6556,428.4086 L452.5572,425.6574 M451.6558,428.4085 L449.1461,429.2545 L446.5195,427.0952 L447.8621,423.7391 L450.4714,423.2478 L449.1998,427.0473 L447.8621,423.7391 M446.5196,427.0952 L449.1999,427.0473 L449.1458,429.2545 M434.6545,418.3009 L443.4637,434.3372 L448.0205,438.1511 L454.6662,433.7711 L443.4637,434.3372 M443.7726,440.0066 L448.0203,438.1507 L455.3988,441.8884 L460.7982,440.1078 L448.0203,438.1507 M460.7555,434.112 L467.1682,429.5005 L460.7982,440.1077 M467.1684,429.5008 L465.4035,417.0066 L463.9618,431.8062 M456.4285,428.8125 L451.1887,414.7227 L458.4752,420.2089 M461.8699,425.9025 L456.4287,428.8124 L456.0334,436.6387 L452.5321,435.1778 M450.3203,438.503 L456.0337,436.6389 L461.8698,425.9024 L458.4753,420.2087 L458.3224,406.3643 L452.9541,408.9942 L451.1888,414.7225 L449.7058,423.3918 M458.3222,406.3642 L452.4354,400.8516 L452.9541,408.9942 L458.4753,420.2086 M452.4355,400.8515 L453.6059,392.9812 L455.3789,403.6075 M452.3848,430.7223 L447.2361,433.1538 L447.2859,434.1441 M455.3988,441.8884 L443.7726,440.0066 L448.7388,449.2511 L448.3472,440.7472 M448.461,443.2211 L452.2044,453.9279 L446.8961,458.4248 L448.739,449.2509 L452.2044,453.9279 L457.9423,457.9312 L462.5681,457.308 L465.8993,472.7116 L463.4529,474.9356 L458.563,479.3813 L453.3706,463.3895 L456.5225,464.4987 L452.2044,453.9279 M457.9421,457.931 L456.5224,464.4985 L462.568,457.3082 L458.563,479.3813 L456.5225,464.4987 M458.563,479.3812 L464.9944,485.5092 L463.453,474.9356 M443.5777,468.9275 L446.8959,458.4249 L441.9322,464.6573 L443.5777,468.9275 L444.2894,474.0868 L455.6759,480.8475 M448.739,449.2509 L441.7627,451.6939 L437.5476,456.2334 L440.2135,462.3221 L435.3859,464.9161 L438.8806,459.2775 M441.7627,451.6938 L440.2136,462.322 L448.7391,449.2507 L440.5735,450.6489 M465.4034,417.0064 L463.465,412.2028 L461.0718,411.3563 L459.2336,412.6404 L459.4086,414.3913 L460.9261,416.6675 L463.8193,415.8776 L463.4651,412.2028 L461.1598,413.9825 L461.0721,411.3563 M423.5115,419.8015 L421.5497,413.9142 L414.1362,410.1252 L414.6308,407.0504 L419.0237,401.8336 L424.6436,388.0865 L430.588,398.6064 L424.1389,394.4273 L429.0566,407.675 L429.3826,411.6619 L421.5499,413.9142 L429.0568,407.675 L419.0239,401.8336 L421.5499,413.9142 L414.6305,407.0504 M424.6435,388.0865 L424.1392,394.4272 L419.0236,401.8335 M431.0256,386.0401 L430.588,398.6067 L429.057,407.6752 L431.9181,408.3702 L432.2919,397.3255 L431.0256,386.0401 L424.6434,388.0862 L430.9583,381.4804 L426.1043,374.1331 L428.7654,369.4003 L431.5943,355.9255 L424.8456,343.6642 L426.9805,352.4261 L425.5128,357.675 L423.4221,365.1028 L424.965,371.0722 L428.7656,369.4005 L436.1825,374.405 L430.7721,359.8421 M423.4221,365.1028 L428.7655,369.4002 L426.9805,352.4264 L431.5945,355.9254 L432.1644,336.2152 L438.8129,322.9743 L439.5707,312.9222 L448.5262,301.8741 L458.8208,295.7643 L445.8478,296.0994 L431.7872,301.2884 L415.4667,299.2796 M431.0253,386.0402 L430.9582,381.4805 L436.1827,374.4054 M423.9275,367.058 L416.4445,377.5366 L409.4063,380.2989 L405.9841,389.0175 L416.4445,377.5366 L424.9652,371.0722 M407.4519,385.2782 L394.4372,385.8279 L405.9838,389.0173 M394.4375,385.8279 L388.0449,373.6837 L397.3651,385.7043 M388.0449,373.6837 L389.7321,370.5863 L390.8901,377.3532 M396.0432,370.114 L392.9703,368.9081 L389.7321,370.5866 L391.8358,375.1487 L395.1215,374.0376 L396.0432,370.114 L393.2776,371.9104 L389.7321,370.5866 M392.9706,368.9083 L393.2778,371.9102 L391.836,375.1489 M414.6144,395.4931 L416.883,378.9027 L411.1006,386.553 M412.0148,388.8787 L403.9048,395.8967 L410.6061,399.2112 M403.9048,395.8966 L402.3556,401.2289 L407.9492,397.8968 M417.7737,383.2835 L418.0996,376.2808 L421.9816,378.7214 M420.5532,380.2705 L420.4549,388.8262 L417.7741,383.2834 M420.5284,382.4203 L422.9369,385.6115 L420.455,388.8263 M408.411,416.1426 L414.1364,410.1253 L410.1902,420.1899 L395.7343,425.4383 L408.411,416.1426 L410.1902,420.1899 L421.5494,413.9143 M386.2614,424.6166 L387.9543,427.2036 L395.2681,421.4032 L402.0728,420.7901 M373.603,441.4766 L367.2565,446.5894 L362.9216,453.6895 L359.274,449.0195 L363.7517,439.6849 L375.0357,426.3882 M359.0965,438.567 L363.6993,439.794 L367.2563,446.5892 L359.2743,449.0193 L358.7849,454.2237 L361.6133,452.0146 M374.0969,430.9036 L375.4049,432.9474 L373.0898,435.748 M359.2742,449.0195 L359.0964,438.5667 L370.514,431.7164 M359.7286,418.9541 L373.2059,425.2259 L386.2614,424.6166 L364.5769,416.0188 L354.925,413.928 L359.7286,418.9541 L364.577,416.0188 L373.2061,425.2259 M368.8242,417.7025 L376.3196,414.4174 L381.9611,422.9117 M380.5032,410.2827 L388.8178,422.646 L391.8869,419.6215 L380.5033,410.2826 L382.7517,404.4044 L377.0085,406.3917 L380.5032,410.2828 L382.4577,421.2671 L388.8181,422.6461 L395.2681,421.4032 L391.8871,419.6216 L382.7514,404.4045 L381.0609,397.5134 L379.0911,405.6712 M395.268,421.403 L394.838,401.4105 L390.6455,416.0204 M395.2401,420.1113 L398.1414,418.2693 L395.0081,409.3196 M408.4329,413.235 L399.5129,421.0208 L400.2487,413.9467 L408.4329,413.235 L408.8331,409.3208 L402.9132,413.7147 M415.3718,371.5319 L423.6634,366.0357 L409.1753,369.3702 M409.1751,369.3701 L407.1212,371.5318 L413.5895,370.9101 M407.41,377.5125 L417.6777,373.2251 L411.1567,372.6485 L399.6638,375.8191 M433.7386,318.309 L433.5642,310.0994 L421.4089,310.746 L431.7869,301.2882 L418.731,304.5525 L409.2377,302.3435 L406.8599,299.0286 M431.7871,301.2884 L433.5639,310.0991 L445.8477,296.0994 L439.5706,312.9222 L433.5639,310.0991 M433.7386,318.309 L438.813,322.9741 L428.5884,327.8947 M421.4092,310.746 L423.4012,316.6018 L433.5641,310.0995 L423.4544,328.1373 L421.1777,335.8159 L416.6741,344.7867 L422.5102,337.2212 L426.3183,334.4159 L421.1778,335.816 L422.5103,337.2209 M415.7735,303.8643 L403.9777,305.8022 L409.2377,302.3434 L413.5826,296.2361 L377.8994,302.5946 L369.1376,295.3891 L366.2017,304.8632 L372.6215,298.2545 M409.8757,304.8332 L402.3563,310.0893 L403.9778,305.8018 M404.6277,308.5014 L402.3563,316.538 L402.3563,310.0894 M403.4922,312.5199 L404.6622,315.7456 L402.3562,316.5384 M413.5826,296.2361 L393.7465,301.3842 L380.4357,313.0405 L388.9427,309.1231 L389.8321,315.2171 L393.1533,306.0484 M381.6809,319.49 L380.4356,313.0404 L377.8114,326.9179 M387.1827,334.1938 L377.8112,326.9178 L383.1474,328.7541 M392.9468,333.834 L387.1826,334.1939 L397.703,329.6544 M391.3256,328.5377 L389.9207,324.3586 L388.5877,328.5737 M393.3794,324.5024 L389.9207,324.3586 L397.7028,329.6545 M392.6227,330.5551 L391.3257,328.5377 L392.825,326.3347 L392.6227,330.5551 L388.5874,328.5736 M393.2533,322.8812 L396.2255,323.5297 L393.3793,324.5022 L393.1272,321.2601 L389.9207,324.3584 M390.7937,312.563 L397.3065,315.9647 L389.8322,315.217 M397.3065,315.965 L398.1573,309.4881 L395.5335,311.852 L395.8173,308.5428 L393.1226,311.6866 M396.8928,315.7488 L393.1226,311.6862 L395.5335,311.8521 M369.1374,295.3891 L382.6012,289.5271 L377.8996,302.5945 L386.6648,293.92 L413.5824,296.236 L400.1733,290.2956 L391.4088,294.3281 M419.258,312.9991 L413.2719,326.3315 L423.4012,316.6015 M405.0935,333.3566 L410.1373,332.2758 L413.272,326.3314 M410.1374,332.2758 L410.3828,336.9908 L407.9316,339.7047 L401.9786,341.018 L405.0936,333.3567 L410.3828,336.9908 M407.9315,339.7048 L405.0935,333.3568 L391.9394,341.0766 L402.7339,339.1608 M415.6889,326.2802 L421.9923,318.8681 L419.22,330.0744 M419.2199,330.0742 L415.8595,337.9545 L411.2777,342.8569 L411.4824,333.46 L415.8595,337.9545 L416.6863,327.3522 M411.2779,342.8571 L405.4998,345.8035 L411.38,338.1585 M416.6742,344.7869 L416.1129,350.9547 L420.1621,340.2651 L421.5214,347.0023 L417.4142,347.5194 L421.2645,354.6084 L422.4172,358.788 L424.9034,356.4096 L425.1555,353.9604 L421.5214,347.0022 L421.2645,354.6084 L425.1555,353.9604 M419.4892,356.8501 L416.1129,350.955 L416.32,354.7289 L420.8955,357.7917 L417.676,361.8798 L421.8892,363.6043 L420.8954,357.7915 L420.5759,361.7073 L417.6761,361.8798 M443.4322,426.0552 L443.4639,434.3372 L446.855,428.5414 L441.5011,424.6528 L440.0818,416.724 L440.3939,406.044 L443.3948,399.0394 L443.45,405.5739 L448.7766,411.5043 L449.6,416.9953 L448.0029,423.7129 M447.0875,427.5623 L446.8547,428.5411 L440.0817,416.7243 L449.5998,416.9956 M443.4498,405.5739 L440.3937,406.044 L448.7763,411.5042 L440.0817,416.7238 M325.7237,354.162 L320.4695,342.2891 L322.5689,350.6569 M312.8728,335.196 L308.3164,325.5786 L315.6954,335.1035 L317.2992,343.0461 M320.4694,342.2892 L317.2992,343.0461 L313.2639,339.3348 L312.8728,335.196 L315.6954,335.1035 M329.5113,341.3867 L329.8545,345.4791 L335.4437,348.8003 L335.3617,354.3647 L339.0217,347.7181 L339.2101,356.2028 L335.3617,354.3651 M361.6432,504.0276 L360.7043,500.9375 L363.4483,501.6732 M365.4341,502.4771 L363.7685,500.5622 L360.7043,500.9375 L359.6647,504.2059 L361.6432,504.0276 L362.5237,505.9808 L364.6107,504.2385 M363.7685,500.5622 L363.4483,501.6732 L365.4341,502.4771 M392.0236,482.9167 L391.7442,474.0456 L388.4561,478.357 M388.8536,485.3945 L391.2176,484.7566 L389.043,483.0071 M383.3698,482.3691 L386.1354,480.691 L384.339,478.7052 M381.219,484.52 L380.1079,483.0073 L379.6353,485.4182 M383.34,488.7651 L380.7934,489.0522 L381.8465,486.9653 M386.4226,489.3779 L385.2928,487.7694 L385.082,489.4158 M394.2126,492.7652 L391.5318,491.0038 L392.0106,494.9863 M388.2961,494.1245 L387.2047,492.4588 L386.6305,494.8904 M391.1415,500.3872 L390.0779,498.3545 L388.92,500.3872 M432.941,478.4152 L438.9823,490.0596 L438.8806,483.8673 L453.177,492.726 L438.9823,490.0596 M447.5512,489.2399 L463.9493,489.2308 L453.1768,492.726 M405.1717,452.7767 L408.3112,443.4613 L407.9291,450.638 M407.3779,439.3883 L408.3111,443.4615 L404.9646,443.0694 L407.0031,447.343 L404.0266,450.7091 L399.106,450.5941 L395.2,446.4011 L397.7222,439.8206 L403.9911,437.7309 L407.3779,439.3883 L404.9644,443.0692 L403.9913,437.7312 L400.8029,437.9119 L397.7223,439.8205 M404.0264,450.709 L400.965,448.5751 L399.1058,450.5944 M395.1998,446.4011 L400.965,448.5752 L404.9644,443.0694 L397.7222,439.8206 L400.9647,448.5753 L407.0031,447.343 M402.4376,324.2376 L400.5189,331.8419 L405.4184,328.9598 M413.9956,348.3408 L413.8312,353.6861 L410.8998,355.4485 L409.9901,345.7253 L417.6589,339.9308 L410.8995,355.4484 L409.5378,362.0049 L407.8449,364.9589 L401.5036,368.7056 L401.252,361.7163 L410.8995,355.4484 M403.0569,367.7882 L404.1819,370.6008 L407.8448,364.9589 L401.2519,361.7164 L409.5382,362.0047 L413.8314,353.6859 M335.0455,436.1042 L336.2749,428.2325 L332.8,433.2912 M337.9056,435.5604 L336.7711,432.5585 L336.0147,437.5222 M432.1336,437.998 L434.1208,434.313 L432.6973,424.7273 L429.3828,411.6618 L428.2867,430.3737 L427.5855,441.3157 L425.2618,471.347 L422.4698,483.4846 L415.6751,489.9184 L420.7711,489.5474 L422.4698,483.4846 M393.5627,485.4219 L397.4063,492.9682 L396.4232,477.287 L393.5627,485.4219 L393.5431,471.3829 L396.4232,477.287 L401.8218,471.9759 L410.0642,463.8037 L413.0637,467.4666 L401.822,471.976 M287.1337,396.9717 L286.9157,395.5539 L286.4487,392.5188 L286.3165,391.6613 L290.5153,394.0061 M329.8991,337.3158 L333.3444,342.502 L330.3035,342.4082 L329.8993,337.3157 L321.5219,331.0862 L330.3034,342.4083 L335.4436,348.8003 L333.3442,342.5022 M401.3474,322.5105 L407.6522,319.0517 L417.884,313.2874 L413.4888,319.448 L407.6522,319.0516 L405.4186,328.9594 L401.3474,322.5103 L406.2833,316.4217 L407.6522,319.0516 M275.6755,479.4396 L279.3091,485.0815 L283.7097,485.9247 L300.4494,489.1323 L288.726,488.8286 L301.6947,493.3134 M326.3773,470.3994 L318.1041,469.1982 L315.3711,468.8013 L313.8848,472.4537 L326.377,470.3994 L317.9201,475.2998 L313.8848,472.4537 L303.442,474.5679 L317.9201,475.2998 M335.8609,467.1825 L343.8549,465.5888 L336.8358,481.2733 L335.8608,467.1825 L335.6264,463.2316 M278.7009,481.1432 L270.278,469.5923 L272.6898,477.7588 L275.6755,479.4396 L288.9912,486.9369 L288.6202,480.54 L291.4803,481.4157 L292.0349,477.7676 L289.2621,469.0423 L288.6202,480.54 L292.0349,477.7676 M258.5797,485.1544 L257.207,500.0907 L256.2186,494.4348 L258.5797,485.1544 L260.5143,477.5517 L255.285,474.0623 L251.1116,480.5967 L251.496,488.0097 L256.2187,494.4344 M395.268,421.4033 L395.7344,425.4385 L387.9543,427.2037 L374.2279,430.2732 L386.2614,424.6169 L391.1686,424.6543 M309.4226,431.3666 L307.0596,432.1302 L307.6094,431.159 L309.1926,428.3617 L312.8449,431.9431 M309.1926,428.3617 L309.4226,431.3665 L309.6134,434.1843 L307.0596,432.13 L306.6512,435.3941 L309.6134,434.1843 L310.7297,436.6345 L306.6512,435.3941 M209.2,388.7772 L212.6693,388.1546 L214.5822,379.481 L209.2001,388.7772 L209.6985,394.1848 L212.6694,388.1546 L217.7007,377.9429 L214.2828,391.8894 L209.6987,394.1848 L213.8869,395.6721 L214.2828,391.8894 L220.8402,392.6458 L224.3708,380.1444 L214.2828,391.8894 M397.3638,302.9734 L388.9427,309.1234 L393.7464,301.384 L397.3638,302.9734 L406.8599,299.0286 L413.5827,296.2361 L415.4668,299.2797 L418.7308,304.5525 L421.4092,310.7461 L419.258,312.9989 L423.4012,316.6019 L423.4544,328.1374 L426.3183,334.4159 L424.8454,343.6641 L432.1641,336.2151 L426.3185,334.4158 L428.588,327.8947 L423.4546,328.1373 L433.7386,318.309 L439.5708,312.922 M324.3683,491.6427 L317.6627,491.5344 L305.9206,488.5099 L301.695,493.3135 L301.0723,495.8932 L309.3452,501.8535 L317.6626,491.5345 L301.0722,495.8933 L293.989,497.6783 L307.7078,500.6735 L287.1391,505.0615 L293.989,497.6783 L287.8509,496.6108 L287.1391,505.0615 L276.6868,503.1491 L287.8509,496.6108 L272.3519,499.2969 L276.6868,503.1491 L260.5695,503.8024 M459.2337,412.6404 L461.1595,413.9829 L465.4034,417.0064 L460.9261,416.6675 L461.1595,413.9829 L459.4087,414.3913 M382.4076,496.6805 L383.9371,495.1094 L385.2111,493.8009 L380.5306,494.7278 L381.9288,490.0944 L385.2111,493.8009 L384.8391,490.6111 L381.9288,490.0944 L377.9845,492.928 L380.5306,494.7278 M384.502,425.4436 L375.0356,426.3884 L374.228,430.2732 L372.8025,437.1297 L363.6995,439.7942 L373.603,441.4766 L372.8025,437.1297 M419.0168,460.5275 L427.5854,441.3157 L431.8387,444.9449 M361.6432,504.0277 L364.6107,504.2385 L363.4485,501.6732 M305.7042,430.8987 L307.6094,431.159 M279.4533,449.0085 L280.2538,456.2586 M288.7258,488.8283 L283.7098,485.9247 M267.1145,450.1126 L263.4665,448.2466 M410.6061,399.2112 L414.6146,395.4931 M331.1283,308.1341 L332.8481,311.1169 M341.6521,356.9078 L338.7628,366.713 M325.4079,315.3201 L323.4945,321.8828 M386.2736,358.407 L392.4898,360.4206 M312.5288,434.572 L310.7299,436.6345 M277.8378,443.3663 L281.9272,443.8154 M313.4663,463.6262 L313.5075,466.6905 M299.7468,408.462 L296.7396,411.427 M372.3807,369.4603 L374.6013,378.4325 M332.3674,367.7404 L328.4011,378.8522 M310.6141,351.4659 L308.5104,354.0422 M313.8904,385.6868 L316.3565,391.3211 M306.9309,399.0401 L311.2332,397.2671 M344.8255,383.1667 L343.2653,386.8775 M278.491,398.7605 L274.3857,397.7602 M266.1485,396.6087 L268.4684,402.9227 M313.3958,483.4495 L320.4431,479.8394 M321.8982,482.873 L323.7747,480.3182 M379.4013,496.8339 L380.531,494.7278 M337.1037,500.7229 L339.5529,504.867 M291.48,481.4155 L288.991,486.9366 M256.588,505.3249 L247.2065,495.1846 M246.0551,491.4283 L238.7581,478.437 M232.6494,441.815 L234.8111,438.1401 M223.5335,456.9812 L226.5018,461.5811 M215.9917,384.916 L222.819,375.6452 M173.3769,456.2321 L182.7474,455.0372 M267.6953,475.2691 L267.9622,468.7309 M368.0385,467.6308 L367.7863,474.0799 M408.4319,492.3096 L404.9732,494.5542 M400.603,497.3897 L390.3203,504.0617 M412.866,471.2541 L409.2631,468.9908 M464.4489,426.8074 L460.7553,434.1121 M460.7816,437.7689 L455.6238,439.3151 M447.4451,433.055 L449.7559,434.0194 M448.7578,428.9355 L448.1064,432.7426 M456.4287,428.8127 L453.9512,429.9827 M453.3708,463.3897 L453.3972,456.8476 M463.1648,416.8369 L464.6828,424.4062 M432.2088,399.7834 L432.9608,412.1549 M426.1043,374.1332 L425.8335,370.6898 M431.7615,392.5985 L433.3063,380.8942 M394.9984,382.6518 L404.1537,385.4174 M393.2777,371.9104 L395.1216,374.0381 M411.1567,372.6487 L407.4099,377.5122 M445.8479,296.0994 L448.5262,301.8741 M428.5882,327.895 L432.1643,336.2153 M381.6809,319.4899 L384.6891,311.0818 M395.8171,308.5427 L398.1571,309.4884 M400.004,301.8766 L408.0488,300.686 M382.6014,289.5269 L386.665,293.9198 M415.6675,320.9962 L405.0934,333.3566 M411.4822,333.4603 L416.4775,330.0308 M420.5757,361.7072 L421.8891,363.6043 M416.3199,354.7291 L419.6027,359.4336 M424.9033,356.4099 L421.2643,354.6086 M315.6954,335.1033 L313.2638,339.3351 M359.6469,492.9315 L366.6396,486.4814 M359.6645,504.2058 L362.524,505.9807 M361.8421,500.7981 L361.8996,497.1793 M406.1679,449.821 L400.2139,456.6219 M412.7682,316.1695 L406.2831,316.4217 M410.2181,348.1637 L401.2516,361.7167" fill="none" stroke="#000" stroke-width="1"/>
</svg>