<svg xmlns="http://www.w3.org/2000/svg" width="800" height="800" viewBox="0 0 800 800">
  <path d="M366.0256,374.7643 L368.8401,374.0594 L372.938,364.963 L377.5227,363.5754 L379.1466,366.5311 L380.142,361.553 L382.3248,364.846 L379.1466,366.5311 L381.0611,367.8519 L377.0978,368.3116 L377.5229,363.5754 L380.142,361.553 L382.3248,364.846 L381.061,367.8519 L377.0978,368.3116 L379.1592,366.5241 L377.5229,363.5754 L370.8891,369.5112 M345.8112,385.3352 L342.5749,386.1625 L343.7636,383.5516 L341.1774,383.4139 L341.3937,388.8901 L345.429,389.5023 L351.9602,385.5436 L356.1443,378.4811 M433.4408,329.6419 L428.6189,330.7057 L432.7255,328.042 M446.1835,350.9701 L439.4673,355.422 L438.0237,354.9183 L432.7844,355.4219 L434.4482,353.6711 M439.4673,355.422 L434.4482,353.6711 L446.1835,350.9701 M441.3352,356.7935 L436.0532,356.3264 L433.0183,360.2663 L426.7439,358.8946 L436.0532,356.3264 M331.8857,380.1422 L329.7585,385.6176 L333.8699,384.2277 L337.7803,383.9649 L341.1654,377.545 M329.7585,385.6176 L333.8699,384.2277 L331.8857,380.1422 L337.7803,383.9649 L337.7221,376.0273 L341.1654,377.545 L341.5451,375.6189 L337.7221,376.0273 L331.8857,380.1422 M319.3312,386.1671 L326.1062,387.6929 L323.1584,394.0522 L320.6226,388.8277 L326.1062,387.6929 L316.8185,380.9903 L320.6226,388.8277 L317.9833,389.3739 M303.5425,424.0095 L300.8376,424.8458 L297.8073,427.7594 M433.439,419.498 L426.9476,428.7739 L421.8737,428.4676 L416.5851,430.9927 L426.9475,428.7738 L421.7239,436.2378 L416.5851,430.9927 L408.6273,433.4956 L401.1275,433.2623 L400.9239,438.4703 L391.2053,437.727 L381.5388,431.6081 L378.071,446.2095 L375.8534,444.3126 L374.9803,450.9893 L369.9095,453.4375 L365.7546,452.7115 L366.5007,457.1961 L353.5859,460.9826 L360.3229,452.6241 L346.8847,456.1547 L352.2595,460.0266 L341.1472,457.6005 L335.5989,463.581 L336.1754,456.7359 L327.1325,462.0319 L323.6211,458.9116 L310.8525,463.7943 L311.1009,460.6349 L296.1941,451.0344 L298.4121,448.9333 L296.4103,442.0152 L299.2658,427.9879 L295.3763,427.3787 L294.9957,433.3253 L292.7713,422.6759 L295.3766,427.379 L294.9957,417.5937 L292.9212,413.8688 L293.2132,409.3745 L290.0615,408.5577 L289.6236,411.6217 L293.2132,409.3745 L294.9788,417.5527 L297.2853,423.1407 L303.3015,410.7436 L298.8697,416.2197 L299.1941,418.9025 L297.8073,427.7594 L303.5425,424.0095 L306.54,418.252 L308.0076,419.0192 L305.806,419.6619 L300.8376,424.8458 L298.1325,425.6821 M293.9064,375.1399 L292.9904,381.5234 L288.1045,381.3129 L286.8911,381.2606 L289.5176,388.7898 L292.9904,381.5234 L286.8911,381.2606 L284.1773,385.3461 L289.5176,388.7898 L278.8747,398.0186 L284.1773,385.3461 L278.8747,388.2191 L278.8747,398.0186 L270.4394,400.4983 L268.9624,409.1091 L265.3596,409.3972 L261.3662,415.5583 L263.8314,421.2239 L264.9232,412.7741 L269.5025,413.9726 L268.8339,422.015 L272.2766,418.44 L269.4215,415.3306 L268.9982,422.4032 L264.9232,412.7741 L268.9624,409.1091 L275.8411,415.5785 L280.2143,411.0872 L275.2503,410.9455 L275.8411,415.5785 L268.1354,412.4817 L268.9625,409.1091 L265.3595,409.3973 L270.4394,400.4983 L278.8748,392.0289 L289.5176,388.7898 L286.8911,381.2606 L288.1045,381.3129 M403.4489,371.8304 L403.7587,369.7976 L406.2755,368.9714 L403.1391,373.8633 L399.4402,375.506 L403.4489,371.8304 L403.1389,373.863 M355.115,376.2677 L352.605,375.5211 L354.8661,372.4191 L351.636,371.3607 L352.2128,368.7399 L359.2651,371.4512 L357.2675,366.8875 M335.4181,374.8797 L334.9328,371.7267 L338.3334,373.6263 L339.7447,371.7497 L336.5024,369.8752 L338.4824,369.8752 L339.7445,371.7499 L339.6207,373.797 L338.3336,373.6261 L336.5024,369.8752 L334.9328,371.7267 L338.3314,373.6249 L335.5944,376.0284 L337.713,375.3167 L339.6207,373.797 L338.3334,373.6264 L337.713,375.3167 M335.4181,374.8797 L330.3591,377.8108 L329.6484,387.0485 L327.4249,389.5232 L331.3944,394.2575 L344.8882,396.7702 L350.689,393.4653 L354.0392,388.8081 L357.2196,373.2054 L352.2128,368.7399 L348.6577,372.8498 L351.636,371.3607 L352.605,375.5211 L354.8661,372.4191 L355.115,376.2677 L351.6302,377.7034 L348.6577,372.8498 L352.605,375.5211 L351.6302,377.7034 M362.6674,368.5337 L357.2196,373.2054 L360.9646,376.3001 L354.0392,388.8081 L351.9602,385.5436 L350.824,388.7658 L346.2214,391.1597 L345.429,389.5023 L341.3937,388.8901 L341.1774,383.4139 L343.3753,387.737 L345.8112,385.3352 L343.7636,383.5516 L343.3752,387.737 L341.3937,388.8901 L346.2214,391.1597 L351.9602,385.5436 L350.8241,388.7656 L354.0392,388.8081 L349.2279,391.4008 L340.7073,395.9915 L350.689,393.4653 L344.8882,396.7702 L337.9895,397.4675 L331.3944,394.2575 L329.6484,387.0485 L327.4249,389.5232 L330.3591,377.8108 M268.955,379.0941 L276.1293,381.3699 L278.7037,375.7404 L280.3324,379.7259 L276.8755,379.7383 L278.7037,375.7404 L286.8281,371.0534 L280.3324,379.7259 M264.3067,385.4118 L267.2537,384.1198 L266.5661,382.3409 L271.6889,380.7856 L267.2537,384.1198 M294.7113,403.238 L297.3898,399.0977 L291.4451,402.2976 L284.7083,403.7631 L278.8226,406.1978 L280.0972,409.2758 L274.1167,409.3942 L278.8226,406.1978 L269.4361,406.3473 L274.1167,409.3942 L280.0972,409.2758 L284.7083,403.7631 L284.4936,411.4506 L291.4451,402.2975 L297.0454,403.9102 L287.9694,406.8741 M228.3628,426.5832 L222.9808,421.6107 L225.1825,412.8718 M219.3386,435.5655 L216.2598,435.9233 L216.476,431.4558 L211.5042,433.4735 L214.5305,433.4735 L216.476,431.4558 L219.3385,435.5654 L219.1422,429.6548 L227.7887,429.4024 L219.3385,435.5654 L226.4329,438.1025 L227.7887,429.4024 L230.2291,431.9334 L232.9543,428.1305 L228.3628,426.5832 L225.1825,412.8718 L225.0048,409.4026 L226.8536,405.2915 L226.9841,411.3372 L228.9636,413.2721 L232.2549,421.634 M258.2526,405.4699 L262.8899,406.6908 L266.5965,401.4022 L258.4655,405.4053 L258.9607,399.2794 L261.3705,401.9191 L268.2489,397.6407 L258.9607,399.2794 L259.2544,395.6457 L261.9146,397.3346 L264.9398,392.3756 L274.9151,393.5436 L262.6874,396.0675 L264.9398,392.3756 L259.2544,395.6457 L262.4091,392.3182 L261.5912,390.2528 L268.3075,388.2607 L264.4556,390.9105 L275.2651,391.1741 L268.3075,388.2607 L262.4091,392.3182 M256.6327,409.9205 L254.1633,397.3829 L256.2299,393.1548 M342.1016,435.0807 L335.4913,430.4274 L335.4911,428.0533 L338.8346,431.3355 L335.4913,430.4274 L330.0219,424.0505 L332.7565,426.052 L329.3733,418.1781 L328.8663,416.9983 L330.4962,415.58 L331.3772,413.9717 L328.0648,413.6078 L330.4962,415.58 L333.445,417.3118 L331.3772,413.9717 L328.0647,413.6077 L328.8663,416.9983 L333.4453,417.3117 L330.4617,420.7111 L329.3733,418.1781 L330.0219,424.0505 L335.4911,428.0533 M349.4993,404.3362 L345.259,405.942 L342.8141,408.7529 L340.0246,414.0847 M356.1646,406.4845 L353.8175,406.2023 L351.7345,404.5064 L353.4621,401.4543 L350.6366,403.5091 L352.1798,403.72 M369.9095,453.4375 L366.5007,457.1961 L365.7546,452.7115 L360.3229,452.6241 L346.8847,456.1547 L350.8117,450.1741 L346.3803,450.6785 L346.6693,453.8162 L336.8842,450.4323 L346.3803,450.6785 L336.8842,448.8587 L339.5644,441.4729 L337.3185,434.4054 L336.8842,448.7791 L336.7986,443.7184 L333.5929,437.083 L333.1347,445.9167 L336.7986,443.7184 L329.9558,429.5546 L333.1347,445.9167 M330.4716,449.1598 L328.9542,455.2297 L323.6211,458.9116 L323.3509,452.8659 L328.9542,455.2297 L325.2696,451.191 L330.4716,449.1598 L322.6035,444.2019 L325.2696,451.191 L323.351,452.8661 M321.5466,454.6698 L322.087,450.3463 L319.8496,439.4492 M312.2874,459.2091 L321.5466,454.6698 L315.4578,453.1564 L322.0871,450.3464 L315.9623,447.4641 L319.8496,439.4492 L315.3477,439.9874 L318.0839,434.946 L320.0654,434.1532 L317.1113,431.307 L318.0839,434.946 L319.8493,439.4493 L320.0654,434.1532 L318.0839,434.946 L315.3477,439.9874 L315.9623,447.4641 L315.4579,453.1565 M313.1934,442.2715 L314.0327,441.2982 L312.4658,447.4562 M435.3989,455.2086 L436.6425,451.4375 L437.3957,447.38 L437.9159,443.6216 L436.4266,442.227 L433.7318,441.9199 M416.5851,430.9927 L415.229,439.4719 L411.3331,441.6743 L407.9915,438.3735 L403.2841,439.4719 L403.6404,441.8168 L405.9167,448.9376 L405.3331,455.0209 L402.0215,454.161 L405.3638,459.5592 L405.3465,456.9587 L412.6536,458.837 L414.005,455.5199 L415.0372,454.4598 L411.2463,455.2107 L410.3313,456.9165 L409.1837,453.7529 L411.2463,455.2107 L412.3785,451.4576 L415.0372,454.4598 L414.7359,451.8761 L412.3785,451.4576 L409.1837,453.7527 L410.3313,456.9165 L412.7664,456.7923 L414.005,455.5199 L414.3774,460.4518 L412.6536,458.837 L405.3331,459.5107 L405.3465,456.9587 L405.3331,455.0209 L403.5281,447.1188 L397.5479,452.8186 L399.9943,448.5311 L394.3302,453.7557 L397.5479,452.8186 L394.7623,461.5738 L394.3446,462.8879 L395.9472,462.7435 L396.6604,464.3256 L398.3509,462.9144 L395.9472,462.7435 L397.4095,460.8365 L398.3509,462.9143 L399.0179,461.4875 L397.4094,460.8365 L397.6687,459.9365 L399.0179,461.4875 L397.4095,460.8365 L397.6687,459.9365 L395.1867,460.2405 L397.4093,460.8365 L395.9472,462.7435 L395.1867,460.2405 L394.7623,461.5738 L394.3302,453.7558 M437.5978,433.129 L428.4918,436.7816 L430.9527,431.3153 L426.9475,428.7738 M427.1895,424.3449 L432.0122,418.8362 L431.2053,421.2303 L433.439,419.498 L433.7482,413.6848 L431.0375,413.3674 L427.7979,417.827 L425.1712,410.7359 L431.0374,413.3674 L430.2492,409.0434 L432.9923,410.3857 L431.0374,413.3672 L432.6887,416.8289 L427.7979,417.827 L430.2492,419.5549 L426.292,419.4624 L427.7976,417.8271 L423.1378,416.0411 L425.1712,410.7359 L430.249,409.0432 L427.6665,409.1898 L425.1712,410.7359 L423.1378,416.0411 L426.292,419.4624 L430.2777,419.5555 L432.6887,416.8289 L431.0375,413.3674 L432.9923,410.3857 L433.7482,413.685 L432.6887,416.8289 L432.0266,418.7934 M359.2883,445.9111 L358.1216,448.0888 L356.8667,446.0754 L362.5751,443.151 L363.7537,445.6084 L356.8667,446.0754 L362.5753,443.1511 L365.2737,443.539 L363.7537,445.6084 L362.5753,443.1511 L365.2737,443.539 L367.5993,441.4138 L369.0294,440.9193 L375.0634,432.899 L381.5386,431.608 L374.8737,429.6986 L384.1327,424.4026 L375.6945,416.8121 L375.3182,410.8785 L379.9135,420.6074 L380.1421,413.774 L383.1549,412.7309 L380.0266,417.2245 L380.1421,413.774 L378.017,410.9594 L378.0772,405.5455 L383.2529,400.45 L380.6941,394.3492 L384.5694,388.65 L382.0012,397.3722 L380.6941,394.3492 L378.0772,405.5455 L380.2429,410.156 L386.9832,403.9259 L383.2529,400.45 L380.2429,410.156 L381.123,412.0303 L378.017,410.9594 L380.1422,413.7741 L377.9081,416.362 M373.3926,392.0072 L370.8383,395.6526 L373.6397,399.3005 L375.3183,401.4669 M369.2505,398.258 L370.8353,389.9772 L368.6718,388.6751 L366.1948,391.6227 M428.6952,395.3211 L426.6217,395.5081 L433.8469,389.2014 L429.3759,389.5901 L434.171,386.031 L433.8469,389.2014 L427.2176,389.778 L426.6217,395.5081 L423.1833,395.8177 M413.0449,382.0488 L420.4447,394.3747 L423.1833,395.8177 L423.1607,394.7713 M401.7638,392.8202 L407.8351,390.1592 L412.4047,397.0396 M445.2167,446.1036 L438.8825,465.3146 L436.2902,467.3823 M477.6964,424.9007 L473.9494,425.4054 L470.2464,429.8267 L465.0136,426.6418 L460.9813,430.8536 L462.8907,438.4915 M479.4093,398.2502 L478.8359,404.2231 L476.2867,406.0697 L479.2198,400.1952 L478.8253,404.2442 L481.4225,402.3766 L476.2628,410.9684 L476.2493,409.0739 L472.0714,410.3264 L466.6272,409.7452 M478.423,388.3654 L478.7098,391.342 L479.9841,392.2501 L478.1796,392.1191 M475.0124,388.708 L475.1372,390.1381 L476.5555,389.8073 L476.3664,391.9818 L475.1372,390.1381 M466.6272,409.7452 L471.8892,412.4107 L476.2628,410.9684 L472.0714,410.3264 L476.2493,409.0739 L476.2493,406.0697 L481.4225,402.3766 L479.9931,392.2565 L479.4093,398.2502 L478.1796,392.1191 L476.3664,391.9818 L478.7098,391.342 L476.5555,389.8073 L476.4846,387.6798 L478.423,388.3654 L476.5556,389.8069 L475.0124,388.708 L476.4846,387.6798 L478.423,388.3654 L479.9865,392.2558 M472.4035,408.1587 L462.472,410.8865 L466.4948,418.3743 L466.6272,409.7452 L469.3018,422.1628 L473.9494,425.4054 L474.4522,442.78 L470.2464,429.8267 L477.6964,424.9007 L480.3946,437.3776 L474.4522,442.78 L479.6617,447.7436 L478.413,439.179 L477.6964,424.9007 L474.4522,442.78 M443.6643,362.5002 L444.8213,361.2455 L441.6769,359.2686 L441.4129,364.9408 L443.5847,369.4303 L445.5951,366.8265 L443.6442,364.2416 L443.5847,369.4303 L441.4129,364.9408 M433.455,376.7775 L428.9243,379.4766 L430.1791,375.1575 L435.6071,377.8422 L436.7482,369.4728 L438.8539,374.8305 L440.6914,361.3923 L436.0077,367.5891 L436.7482,369.4728 L430.1791,375.1575 L435.6071,377.8422 L438.8539,374.8305 M418.6992,354.6563 L421.571,355.7286 L423.8112,354.2735 L423.0646,357.4516 L421.571,355.7286 L420.4032,358.3516 M429.4923,352.3896 L428.2341,353.1327 L428.03,347.4717 M355.6764,291.5013 L356.6908,297.8211 L358.5583,294.8193 L360.1892,302.5725 L356.6908,297.8212 L353.0269,305.4325 L360.1892,302.5724 L360.4466,308.2802 L353.0269,305.4325 L362.433,312.3139 L360.4466,308.2802 L364.3895,308.8197 L363.7939,299.3055 L360.9058,296.2077 L361.4478,306.8269 L365.1933,294.8193 L361.4478,296.789 L365.4662,305.2668 L361.4478,306.8269 L365.0038,309.3329 L374.485,301.6383 L375.7266,302.8127 L375.6283,305.2668 L371.3329,304.1964 L374.4851,301.6382 L372.623,306.4859 L375.6283,305.2668 M438.3527,336.6372 L441.3199,329.8251 L435.1081,334.5186 L435.8448,342.3943 L428.0303,347.4714 L434.7418,347.7051 L438.2195,340.9669 L435.845,342.3944 L434.7418,347.7051 L433.3706,350.0978 L430.4035,354.6678 L429.4923,352.3896 L433.3706,350.0978 L428.03,347.4717 L435.2929,336.4938 L435.8448,342.3943 M308.0969,424.9601 L307.872,429.1689 L311.5557,420.5644 L308.0969,424.9601 L304.206,426.0767 L307.7368,431.6971 L300.0988,435.66 L304.206,426.0767 L298.4153,432.1667 L300.0988,435.66 L297.048,438.8836 L296.4104,442.0153 L302.3209,452.5381 M452.7638,298.5247 L454.203,305.6614 L454.3445,312.3114 L458.4547,316.0903 L453.0694,326.8155 L448.334,325.358 L450.1726,320.076 L446.0143,320.2724 L445.2495,327.6301 L441.1217,335.9719 L444.4485,335.5529 L444.2404,341.714 L447.1742,343.1862 L445.1741,345.0994 L444.2404,341.714 L447.3922,341.1891 L444.4485,335.5529 L443.545,331.0747 M436.234,328.3895 L431.471,334.582 L436.1512,332.1953 L436.317,324.5838 L440.363,321.8061 L439.8624,328.2243 L436.317,324.5838 L436.1512,332.1953 L439.8624,328.2243 L442.5844,321.8414 L444.83,312.7643 L439.7242,318.7681 L442.5844,321.8414 L439.8624,328.2243 L440.5321,319.6364 M427.0195,299.0012 L433.5357,298.0368 L434.4987,299.3794 L430.2382,302.1809 L428.9248,305.6535 L428.9248,310.8769 L430.7811,310.2036 L429.8449,307.6223 L428.9248,310.8769 L430.7647,304.3673 L428.9248,305.6535 L435.0155,301.396 L430.2382,302.1809 L439.7928,300.6112 L434.4987,299.3794 L442.1883,301.1687 L444.3576,306.1855 L445.9712,310.9287 L431.1421,324.5001 L439.7068,314.488 L435.2274,323.6245 L431.142,324.5 L420.4871,330.7532 L435.4263,327.4437 L433.4408,329.6419 L431.142,324.5002 L435.4263,327.4437 L435.2274,323.6245 M428.9907,317.1136 L427.4365,323.2731 L431.4051,320.9386 L428.1076,315.7145 L433.2145,312.913 L441.5023,308.244 L437.9421,313.234 L433.2145,312.913 L431.4051,320.9386 L428.1076,315.7145 L432.1057,310.7827 L437.3584,310.5785 L433.2145,312.913 L432.1057,310.7827 M444.3576,306.1855 L442.6152,308.0104 L445.9712,310.9287 L439.7068,314.488 L442.6152,308.0104 M424.8809,299.8896 L418.0598,304.8709 L418.7802,309.807 L421.4703,302.3804 L419.5591,307.6572 L424.8345,310.4126 L421.4703,306.9487 L423.6282,304.4008 L423.3983,307.0813 L425.5236,305.1665 L423.6282,304.4008 L421.4455,306.9473 L423.3983,307.0813 L425.5236,305.1665 L424.8345,310.4126 L418.7802,309.807 M293.4372,394.0455 L302.6447,387.1636 L293.2321,389.5585 L293.6009,397.6273 L288.9886,393.9728 L293.2321,389.5585 L293.6009,397.6273 L283.3541,402.15 L280.5222,399.9176 L277.4569,404.2944 L283.3541,402.15 L288.9886,393.9728 L280.5222,399.9176 L269.8899,403.7026 L277.4568,404.2944 M239.6237,441.8313 L236.311,438.43 L236.2042,441.3187 L234.3279,436.8876 L236.5417,432.1994 L241.2129,425.7439 L243.4515,424.0292 L251.0416,423.0613 L243.0723,426.3931 L254.7079,426.618 L252.4859,422.4579 L259.4831,425.4835 L254.7079,426.618 L262.3862,429.6931 M241.4031,439.7255 L244.0085,438.5469 L241.1394,436.8876 L241.4031,439.7256 L244.2722,441.5401 L241.0774,443.3238 L239.6237,441.8313 L241.4031,439.7256 L241.0774,436.9581 L238.8752,439.462 L239.6237,441.8313 L241.0774,443.3238 L236.2042,441.3187 L236.311,438.43 L236.5417,432.1994 L234.3279,436.8876 L234.1132,432.8132 M232.9543,428.1303 L227.7674,429.4181 L226.4329,438.1025 L230.2291,431.9334 L235.1914,428.6537 L231.8287,434.5649 L228.9037,435.447 L231.4729,440.7473 L227.6473,439.9913 L220.6198,447.1524 L231.4729,440.7473 L227.6473,439.9913 L228.9037,435.447 L233.5365,431.0975 L231.8287,434.5649 L231.4727,440.7476 M269.3777,361.5241 L270.0983,355.2191 L276.6914,354.8589 L276.8277,361.8609 L272.4683,369.3907 L275.2784,368.8864 L272.8721,373.7708 L268.955,379.0941 L276.2644,374.9756 L272.8721,373.771 L276.2644,372.0722 L276.2644,374.9756 L280.8329,372.4015 L276.2644,372.0722 L284.7566,362.3981 L281.8968,372.5242 L280.8329,372.4015 L276.2644,372.0722 L277.9695,366.2631 L283.4996,358.7535 L279.0591,360.747 L279.4529,358.7535 L281.6819,353.3004 L282.5854,345.8936 L283.4996,338.2672 M226.8536,405.2915 L225.0048,409.4026 L228.9636,413.2721 L225.1825,412.8718 L232.2549,421.634 L228.3628,426.5832 L232.9543,428.1305 L232.2549,421.634 L235.6796,424.3273 L230.2291,431.9334 L240.1537,425.374 L234.1132,432.8132 L243.0723,426.3931 L240.1537,425.374 L243.4515,424.0292 L243.0723,426.3931 L252.4859,422.4579 L254.7079,426.618 L259.4831,425.4835 L262.3862,429.6931 L259.9385,422.5872 L256.7295,413.9518 L261.0891,411.1775 L256.4381,401.8188 L259.2544,395.6457 L256.2299,393.1548 L266.3538,379.2619 L262.8042,387.4537 L272.8721,373.771 L272.4683,369.3907 L275.2784,368.8864 L276.8277,361.8609 L274.9622,360.5152 L276.6914,354.8589 L270.0983,355.2191 L275.8268,357.6872 L271.7817,355.9443 L269.3777,361.5241 L271.1431,363.9019 L274.4011,362.3504 L271.8636,361.7401 L271.143,363.902 L269.3777,361.5241 L271.8636,361.7401 L274.3715,362.4474 L273.5932,359.4345 L271.8636,361.7401 L270.5796,358.7341 L273.5932,359.4345 M283.5907,441.45 L280.1179,449.7669 L278.007,448.4197 L277.625,441.872 L274.9657,438.7706 M283.5362,338.1734 L284.4043,344.8597 L282.5854,345.8936 L286.3012,347.205 L281.6819,353.3004 L287.6454,356.8923 L279.5323,358.3513 L277.9695,366.2631 L272.8721,373.771 L266.3538,379.2619 L259.2544,395.6457 L256.23,393.1548 L256.7295,413.9518 L261.0891,411.1775 L259.9382,422.587 L267.8626,430.4861 L262.3862,429.6931 L274.9657,438.7706 L267.8626,430.4861 L283.5907,441.4501 L277.625,441.872 L278.007,448.4197 L283.5907,441.45 L286.0615,460.7212 L280.1179,449.7669 L284.4565,467.3822 L286.0615,460.7212 L291.8687,463.2602 L284.4565,467.3822 L293.3864,467.3822 L291.8688,463.2603 L296.6255,464.0189 L293.3864,467.3822 L310.0203,467.3822 L296.6255,464.0189 M374.2914,423.2659 L372.9185,429.9537 L369.0294,440.9193 L368.1782,437.2555 L368.4164,438.2802 L362.5753,443.1511 L369.0294,440.9193 L368.1782,437.2555 L372.9185,429.9537 L375.0634,432.899 M321.9415,434.8511 L328.7638,444.207 L331.6682,441.5145 L328.732,433.2071 L328.7638,444.207 M374.3475,446.6239 L365.7546,452.7115 L360.3229,452.6241 L350.8117,450.1741 L346.8847,456.1547 L346.3803,450.6785 L336.8842,450.4323 L332.8212,448.0801 L336.8842,448.8587 L326.3133,442.8273 L323.895,441.4658 L321.9415,434.8511 L324.5668,429.0799 L321.9291,416.9454 L321.9415,434.8511 L319.3791,419.0725 L316.4432,421.7856 L321.9415,434.8511 L317.066,429.5248 L316.4432,421.7855 L316.4013,412.6358 L312.6633,399.7652 L313.9341,418.7595 L316.4013,412.6358 L316.424,417.561 L319.3791,419.0725 L316.4432,421.7855 L313.9341,418.7595 M382.7626,453.3028 L392.4053,449.2585 L401.6266,445.6705 L403.6404,441.8168 L389.3638,446.6542 L378.1523,452.9777 L376.0701,460.0667 L371.6447,465.394 M314.0327,441.2982 L309.797,438.4716 L314.7343,435.3579 L313.1934,440.7382 L309.797,438.4716 L306.4166,443.7646 L306.728,449.769 L313.1934,442.2715 L310.5533,454.973 L312.4658,447.4562 L311.3539,459.5546 L310.5533,454.973 L306.728,449.7692 L306.4166,443.7646 M290.0923,419.8869 L289.6313,417.3729 L288.4494,418.1766 L292.7713,422.6759 L295.3763,427.3787 L297.2853,423.1407 M292.6539,426.3219 L294.0866,433.1815 L284.4028,432.6826 M294.0866,433.1815 L295.119,439.523 L284.4028,432.6826 L288.563,424.041 L292.6539,426.3219 L284.0782,424.6359 L285.5916,412.4586 L288.563,424.041 L284.0783,424.6359 L286.4827,428.3618 L288.5631,424.0411 M405.9167,448.9376 L401.6266,445.6705 L403.6404,441.8168 L403.3386,439.4438 L389.3638,446.6542 L374.9803,450.9893 L378.071,446.2095 L375.8532,444.3125 L381.5388,431.6081 L374.8737,429.6986 L375.0635,432.899 L375.8532,444.3125 L374.3475,446.6239 L369.9095,453.4375 L365.7546,452.7115 L353.5859,460.9826 L352.2595,460.0266 L335.5989,463.581 L341.1472,457.6005 L336.1754,456.7359 L335.5989,463.581 L327.1325,462.0319 L336.1754,456.7359 L323.6211,458.9116 L311.1009,460.6349 L310.8525,463.7943 L303.6475,455.8347 L311.1009,460.6349 L298.412,448.9333 L296.1941,451.0344 L296.4104,442.0153 L294.9957,433.3253 L299.2658,427.9879 M415.229,439.4719 L411.3331,441.6743 L405.9167,448.9376 L407.9915,438.3735 L403.6403,441.8167 L392.4053,449.2585 L389.3638,446.6542 L381.1929,454.8837 L374.9803,450.9893 L376.0701,460.0667 L366.5007,457.1961 L371.6447,465.394 L369.9095,453.4375 L378.0544,463.4235 L371.6493,465.4252 L373.9178,467.3822 L390.864,467.382 L378.0544,463.4235 L373.9178,467.3822 M339.6409,332.1107 L330.6702,336.8448 L337.6541,336.8211 L340.5997,329.8378 L344.9951,332.3597 L337.6541,336.8211 L340.5995,329.8377 L347.3727,328.937 L344.9951,332.3598 L349.1942,331.2323 L347.3727,328.937 L350.935,327.9012 L349.1942,331.2323 M427.6675,457.5765 L424.9152,453.7854 L421.802,447.6729 L424.119,441.0836 L424.3959,445.5028 M437.5978,433.129 L435.1682,430.1622 L428.492,436.7817 L426.9475,428.7738 L421.7861,436.1489 L424.119,441.0836 L428.4918,436.7816 L424.3959,445.5028 L424.9152,453.7854 L428.738,454.8945 L427.6585,457.5793 L435.3989,455.2086 L435.6328,450.7238 L437.3957,447.38 L432.6902,445.9537 L436.4266,442.227 L437.3957,447.38 L434.3464,449.8147 L430.6115,448.633 L430.2807,444.0234 L433.7318,441.9199 L432.6901,445.9537 L430.2853,444.088 L430.6115,448.633 L432.6901,445.9537 L434.3464,449.8147 L436.6425,451.4375 L438.814,452.646 M435.1682,430.1622 L442.4198,427.5084 L437.5978,433.129 M357.7944,417.8785 L352.1838,417.7911 L354.0639,423.0144 L356.9237,430.0185 L359.8422,427.538 L352.2547,430.4271 M352.9843,416.2734 L352.1378,417.8784 L348.7148,421.5919 L349.1029,417.7494 L347.1327,423.0804 L348.6654,428.0923 M352.1378,417.8784 L351.1168,425.7578 L354.0639,423.0144 L357.8579,417.7911 L359.8423,427.5378 L354.064,423.0146 L356.9237,430.0185 L351.1168,425.7578 L352.2547,430.4271 L348.6654,428.0923 L351.1168,425.7578 L347.1327,423.0804 L348.7148,421.5919 L351.1168,425.7578 L352.1838,417.7911 L348.9934,417.7911 L352.9843,416.2734 L357.7943,417.8784 L361.1262,422.898 L359.8422,427.538 L355.6962,434.6691 L351.3115,435.3957 L344.611,432.1985 M319.7961,365.0519 L322.9109,369.9521 L318.5965,375.7342 L323.6672,375.2446 L319.8419,381.9612 L326.1136,386.6314 L327.6879,383.832 L325.2684,376.667 L331.4084,372.3727 L328.5939,377.4772 L327.6879,383.832 L326.1136,386.6314 L322.9109,369.9521 M325.2684,376.667 L324.6577,366.8635 L329.8633,359.3406 L328.9959,353.3003 L324.6578,366.8635 L329.8633,359.3406 L333.5876,365.6223 L333.8202,370.6858 L325.2685,376.667 L333.5873,365.6223 L324.6577,366.8635 M338.0735,357.0864 L339.5329,363.7401 L343.2391,366.6876 L348.4333,367.242 L353.5088,364.2397 L352.9606,359.7426 L351.1662,352.5898 M366.0256,343.6801 L370.5133,359.6644 L373.5898,356.1866 L366.0256,374.7643 L376.427,359.9666 L387.5315,348.9398 L396.7531,347.2474 L399.1534,347.7273 L402.4402,350.6877 L404.6446,353.744 L406.4429,361.0115 M362.5965,331.7353 L358.7295,325.9149 L360.0286,332.3485 L356.7599,329.3423 L358.7295,325.9149 L352.7525,318.1998 L356.4431,325.9899 L358.7295,325.9149 L360.0286,332.3485 L362.5964,331.7354 L366.8524,341.3524 L360.0494,333.7943 L366.0256,343.6801 L367.2148,341.7548 L372.2336,352.3511 L374.3538,354.2309 L377.2664,353.7248 L377.8285,345.3392 L377.7764,343.0054 M343.0591,324.5173 L349.4995,326.3282 L352.867,329.6161 L348.7065,334.0484 L349.2238,337.3223 L345.2275,333.9532 L339.9164,340.636 L349.2238,337.3223 L345.2275,333.9532 L348.5658,334.0482 L352.8804,329.6291 L349.2238,337.3223 M319.106,320.6572 L314.947,324.439 L304.806,320.3292 L319.1062,320.6572 L318.2563,328.7411 L324.3878,326.4936 L319.1062,320.6572 L326.9803,322.0222 L324.3878,326.4936 L332.5976,326.4808 L326.9803,322.0222 L339.2682,323.4514 L332.5976,326.4808 L343.0591,324.5173 L339.2681,323.4513 L351.2234,328.0113 L349.4995,326.3282 L360.0494,333.7943 L354.0124,330.9962 L354.6134,339.1685 L351.2936,336.862 L352.9095,341.2553 L345.8252,340.6042 L351.2936,336.862 L354.0961,330.8157 L361.9746,336.9787 L360.0494,333.7943 L367.2148,341.7548 L366.0256,343.6801 L372.2336,352.3511 L373.5898,356.1866 L366.1068,374.7438 L364.1873,387.2636 L357.8655,391.8561 L360.8119,397.3561 L363.3836,411.3995 L367.8763,413.6416 L360.8119,397.3559 L366.6396,404.3705 L375.6945,416.8121 L375.3183,410.8786 L372.8723,408.6866 L375.3183,401.4669 L370.8383,395.6526 L375.6241,396.2948 L371.7888,388.9256 L374.2994,381.3012 L375.3183,390.1326 L376.7508,387.9549 L374.7956,385.7372 L371.7888,388.9256 L375.3183,390.1823 L375.6241,396.2948 L373.6397,399.3005 L372.8723,408.6866 L369.2505,398.258 L368.6718,388.6751 L370.8353,389.9772 L367.9519,383.8559 L371.8283,378.7032 L370.032,385.1561 L367.9519,383.8559 L368.6718,388.6751 M422.2405,335.044 L411.8492,338.6379 L410.9078,336.239 L403.6239,339.0975 L411.8491,338.638 L401.2209,344.6272 L402.3301,339.1697 L397.1821,344.6415 L396.7531,347.2474 L404.5186,348.8 L407.8069,358.1295 L406.2755,368.9714 L405.4898,366.5779 L399.5457,371.1806 L397.382,371.3145 L394.2419,366.9301 M377.6238,336.1326 L374.6592,341.5169 L377.7764,343.0054 L377.6588,337.706 L379.7545,343.5766 L377.7764,345.4723 L373.5898,356.1866 L377.2664,353.7248 L387.6188,344.825 L397.1821,344.6415 L401.2209,344.6272 L402.3301,339.1697 L411.8491,338.638 L410.9152,336.2359 L422.2405,335.044 L419.1197,337.6668 L424.3601,340.1578 L422.2405,335.044 L426.6057,340.6778 L424.6439,344.578 L420.9327,346.4218 L426.6057,340.6778 L424.3601,340.1578 L420.9327,346.4218 L416.0032,344.825 L418.0489,343.4908 L420.933,346.4218 L424.3601,340.1578 L418.049,343.4907 L419.1198,337.667 L416.0032,344.825 M364.954,320.7641 L366.8417,325.184 L363.4488,322.6611 L374.7256,337.0096 L377.6978,336.019 L377.6588,337.706 L379.7603,334.4856 L382.8946,336.8666 L384.3542,331.1491 L379.7603,334.4856 L377.6588,337.706 L382.8946,336.8666 M370.0588,306.8979 L366.7848,310.7271 L363.0439,316.3278 L365.0038,309.3329 L365.0899,321.0799 L363.0439,316.3278 L363.4488,322.6611 L370.2346,327.7069 L370.562,331.8319 L373.0251,331.9077 L376.0284,325.9863 L379.3628,326.5423 L379.579,319.5528 L382.8216,319.8408 L384.3113,313.6414 L388.9371,310.9727 L382.8216,319.8408 L381.7764,317.391 L379.579,319.3606 L376.0297,325.8918 L375.9698,330.1009 L373.0251,331.9077 L377.6238,336.1326 L382.4405,328.7364 L382.5104,330.6524 L386.9309,328.9744 L385.5641,332.9654 L393.3558,331.3895 L386.9309,328.9744 L398.9861,321.6602 L393.3558,331.3895 L386.9308,328.9743 L382.4405,328.7364 L377.8645,332.6615 L377.6238,336.1326 L374.6592,341.5169 L374.7256,337.0096 L373.0251,331.9077 L370.2346,327.7069 L363.4488,322.6611 L365.0899,321.0799 L365.0038,309.3329 M367.8378,297.4935 L367.4518,296.7808 L366.4827,304.203 L370.9976,303.3283 L365.0038,309.3329 L366.7848,310.7271 L375.3626,312.508 L370.0588,306.8979 L375.9943,306.8019 L375.5125,311.1523 L378.6938,310.153 L375.9943,306.8019 L381.3971,299.6615 L378.6938,310.153 M366.4827,304.203 L369.1301,304.6759 L370.9976,303.3283 L372.4633,293.5424 L367.8378,297.4935 L370.9976,303.3285 L372.7229,298.9555 L372.2011,295.2913 M433.439,419.498 L421.8737,428.4676 L418.9409,427.2953 L416.5851,430.9927 L421.7239,436.2378 L415.229,439.4719 L407.9915,438.3735 L400.9233,438.4857 L401.1275,433.2623 L394.5907,430.8109 L384.1325,424.4026 L381.5386,431.608 L374.8737,429.6986 L374.2914,423.2659 L366.2781,423.7387 L372.9185,429.9537 L370.4225,431.232 L364.9678,430.6768 L367.3818,435.5046 L358.4668,434.2102 L357.2629,437.1686 L351.3115,435.3957 L348.8045,438.8812 L342.1016,435.0807 L344.7678,432.0183 L340.5523,431.8021 L335.8538,417.1561 L338.6378,421.7979 L341.4114,406.3715 L342.8141,408.7529 L349.3191,401.2739 L349.4993,404.3362 L353.4621,401.4543 L353.803,406.1704 L356.4206,404.3551 L356.1646,406.4845 L354.7072,408.1551 L353.803,406.1704 L351.4037,407.1504 L351.7345,404.5064 L353.6485,403.8881 L356.4208,404.355 L353.4828,401.4392 L349.3191,401.2739 L341.4114,406.3715 L335.8538,417.1561 L344.7678,432.0183 L340.5523,431.8022 L342.1016,435.0807 L351.3114,435.3955 L348.8043,438.8812 L357.2629,437.1686 L360.5315,439.474 L367.3816,435.5046 L370.4221,431.2322 L364.9678,430.6768 L366.278,423.7386 L374.2914,423.2659 L367.8763,413.6416 L366.278,423.7387 L364.9678,412.1901 L367.8763,413.6416 L366.6394,404.3704 L360.8119,397.3559 L369.2505,398.258 L364.1873,387.2636 L360.3685,390.038 L358.7745,386.2902 L362.6674,368.5337 L355.9668,366.4908 L357.8655,364.2523 L356.6575,357.3849 L353.5088,364.2397 L353.0903,359.7268 L348.4333,367.242 L344.3479,360.7925 L351.1662,352.5898 L343.6494,352.1169 L338.0735,357.0864 L344.3479,360.7925 L343.6494,352.1169 L348.5661,348.4768 L351.1662,352.5898 L354.0502,352.6608 L353.0903,359.7268 L344.3479,360.7925 L343.2391,366.6876 L338.0735,357.0864 L339.7953,351.3373 L348.5661,348.4768 L354.0502,352.6608 L356.6572,357.3849 L355.9668,366.4908 L357.8742,364.2421 L362.6674,368.5337 L358.391,363.0883 L363.52,364.2704 L360.211,359.8499 L364.9383,359.3301 L358.9069,357.6195 L359.9641,346.6396 L364.9383,359.3301 L363.52,364.2704 L362.6674,368.5338 M412.8212,410.1951 L417.6471,410.7557 L422.0078,414.3641 L421.9671,422.546 L416.5851,430.9927 L407.9913,438.3736 L408.6273,433.4956 L400.9233,438.4857 L394.5907,430.8109 L391.2053,437.727 L384.1327,424.4026 L374.2914,423.2659 L375.6945,416.8121 L367.8763,413.6416 L366.6394,404.3704 L369.2505,398.258 L360.8119,397.3559 L364.1874,387.2635 L358.7745,386.2902 L366.1069,374.7439 L362.6674,368.5337 L373.5898,356.1866 L376.427,359.9666 L377.2664,353.7248 L387.5313,348.9398 L387.6188,344.825 L396.7531,347.2474 L397.1821,344.6415 L404.5186,348.8 L402.4402,350.6877 L407.8069,358.1295 L405.0789,363.8936 L406.2755,368.9714 L399.5457,371.1806 L394.2419,366.9301 L395.8164,363.3207 L395.9201,365.7282 L401.369,361.2909 L401.2541,365.9628 L398.8911,364.8281 L397.7116,367.6094 L401.2541,365.9549 L401.4071,369.122 L397.7116,367.6094 L401.2538,365.9629 L401.4071,369.122 L402.5177,367.1498 L401.254,365.9629 L403.0344,363.5887 L401.369,361.2909 L395.8178,363.3521 L395.9201,365.7282 L396.0338,368.3663 M404.6733,418.3875 L406.9425,414.2511 L412.8212,410.1951 L412.9159,415.8448 L417.6471,410.7557 L419.1597,419.1236 L421.9671,422.546 L416.3189,428.4814 L412.2959,422.9379 L409.5313,427.5228 L416.319,428.4814 L421.2019,426.2726 L421.9671,422.546 L422.0078,414.3641 L419.1597,419.1236 L416.3189,428.4814 L409.5313,427.5228 L405.6897,424.2732 M419.1597,419.1236 L412.9159,415.8448 L406.552,420.7869 L406.9425,414.2511 L412.9159,415.8447 L412.2959,422.9379 L406.5517,420.787 L405.6897,424.2732 L404.6733,418.3875 L406.552,420.7869 L409.5313,427.5228 L412.2959,422.9379 M414.4628,399.0905 L406.795,399.8557 L404.9862,408.5562 L403.1326,404.1714 L393.8844,409.7204 M468.2741,476.0369 L456.4619,467.3822 L446.8132,467.3822 L393.6531,467.3823 M458.5919,451.4294 L453.6985,441.9975 L447.4779,436.2722 L445.2167,446.1036 L454.238,452.2563 L456.4618,467.3822 L460.9988,458.9727 L468.2741,476.0369 L480.7762,466.7371 L460.9988,458.9725 L454.238,452.2563 M444.4713,389.7517 L446.0605,394.5204 L441.4431,407.2766 L433.439,419.498 L430.9527,431.3153 L435.1682,430.1622 L449.3604,411.9469 L442.4198,427.5084 L447.4779,436.2722 L449.3604,411.9469 L454.6691,421.8466 L451.0736,429.0593 L450.8133,439.349 L458.5101,446.4491 L465.5327,450.7655 L470.0894,453.5892 L478.8152,450.7581 L465.5327,450.7655 L470.0896,453.5892 L458.5919,451.4294 L458.5094,446.4134 L451.0738,429.0594 L447.4779,436.2722 M470.2464,429.8267 L469.3018,422.1628 L460.9813,430.8536 L472.1137,443.9676 L462.8907,438.4915 L466.4948,418.3743 L457.4297,424.0302 L460.9813,420.3051 L466.4948,418.3743 L459.5892,428.9621 L458.5095,426.4959 L455.6788,431.0632 L459.5892,428.962 L460.9813,420.3051 M474.3812,394.8502 L472.4032,408.1585 L469.264,405.9387 L462.472,410.8865 L462.2218,406.2943 L453.501,398.5103 M462.2218,406.2943 L469.3604,405.9338 L467.2779,397.4285 L468.4792,390.4064 L469.264,405.9384 L474.3811,394.8503 L468.4792,390.4064 L469.909,385.7665 L474.3466,394.8243 L474.2574,383.6362 L469.909,385.7665 L469.4889,379.171 L471.8731,381.4032 L470.437,372.7959 L469.4889,379.171 L474.2574,383.6362 M441.3989,413.0144 L446.1393,402.8091 L449.3604,411.9469 L449.9286,403.084 L452.8055,414.8866 L453.5011,398.5103 L454.6539,406.2749 L462.4719,410.8864 L453.501,398.5103 L455.0864,393.3049 L462.2218,406.2943 L464.9688,401.5997 L460.6321,398.4499 L459.4825,392.0276 L464.9688,401.5997 L467.1922,392.2474 L459.4825,392.0276 L466.5252,387.7997 L459.7351,383.3768 L462.166,377.7031 L462.2107,382.996 L466.5251,387.7996 L467.192,392.2476 L459.4825,392.0276 L459.7351,383.3768 L462.2107,382.996 M456.324,357.7492 L452.1469,367.1736 L453.9943,363.0055 L452.743,372.4859 L452.1469,367.1736 L451.7924,377.3526 L453.1727,376.3148 L453.7145,388.3266 L451.7926,377.3524 L450.5522,384.6979 L453.501,398.5103 L444.4714,389.7516 L453.7145,388.3266 L455.0864,393.3049 L453.5011,398.5103 L449.9286,403.084 L446.1393,402.8091 L453.501,398.5103 L446.0605,394.5204 L446.1393,402.8091 L441.4431,407.2766 L441.3989,413.0144 L433.439,419.498 L435.1682,430.1622 L441.3989,413.0144 L449.3604,411.9469 L452.8055,414.8866 L447.4779,436.2722 L442.4198,427.5084 L438.814,452.646 L447.4779,436.2722 L454.238,452.2563 L446.8132,467.3822 L445.2166,446.1036 L438.814,452.646 L432.5289,463.6583 L419.1757,467.3824 L427.5046,457.3668 L419.1757,462.7712 L413.6573,464.179 L407.2486,467.3824 L393.6531,467.3823 L413.6573,464.179 L419.1757,467.3824 L438.814,452.646 L446.8132,467.3822 L432.5287,463.6582 M453.0694,326.8155 L452.6076,342.7808 L448.8704,339.9466 L445.9881,350.2144 L447.2379,355.0496 L450.3163,353.6955 L448.1607,357.5289 L452.0924,363.4803 L452.1469,367.1736 L446.9775,368.8312 L442.4255,379.9664 L446.5687,373.9673 L450.5522,384.6979 L442.4255,379.9664 L444.4716,389.7516 L438.8669,384.192 L438.5041,386.7018 L433.8292,391.5566 L435.2703,394.835 L423.5611,399.0863 L417.2592,400.5162 L415.888,398.4208 L406.1408,403.0025 L406.795,399.8557 L397.6126,410.7143 L404.9862,408.5562 L405.6346,412.0772 L397.6126,410.7143 L394.0282,418.187 L400.4939,416.2186 L396.9827,421.9696 L394.0282,418.187 L393.632,422.4023 L395.923,420.6129 L394.0283,418.187 L393.8844,409.7204 L397.6126,410.7143 L400.4939,416.2186 L405.6346,412.0772 M446.0143,320.2724 L444.1702,326.492 L440.5222,333.7583 L440.0677,338.7544 L440.2354,341.8116 L443.9414,344.2923 L441.3339,347.6038 M421.5514,316.0149 L423.9589,316.5402 L421.6535,317.3281 L418.852,317.2116 L417.7815,320.5967 L421.0406,322.2307 M420.4447,394.3747 L423.1833,395.8177 L419.4391,391.4576 L422.835,379.6237 L423.1607,394.7713 L425.5107,393.2793 L422.9728,386.0301 M466.3224,298.9992 L459.0685,307.9482 L464.1529,294.3217 L454.203,305.6614 L459.0685,307.9482 L458.4547,316.0903 L450.1726,320.076 L453.0694,326.8155 L447.1412,332.8492 L448.8704,339.9466 L450.3163,353.6955 L456.324,357.7492 L452.0924,363.4803 L446.9775,368.8312 L451.7924,377.3526 L450.5524,384.6981 L444.4714,389.7516 L438.4665,386.6826 L435.2703,394.835 L433.8292,391.5566 L423.5611,399.0863 L423.1834,395.8177 L417.2592,400.5162 L415.888,398.4208 L405.313,398.9141 L398.3235,391.4564 L394.3964,393.834 L390.5055,389.7628 L398.3235,391.4564 L415.888,398.4208 L419.8628,398.4511 L423.1833,395.8177 L417.9588,396.8245 L411.2238,386.8102 L413.0449,382.0488 L410.08,383.0749 L411.6756,376.467 L413.0449,382.0488 L408.3931,383.6584 L411.2238,386.8102 L412.8069,395.7075 L417.9588,396.8245 L420.4447,394.3747 L411.2238,386.8102 M439.5442,296.8976 L452.7638,298.5247 L464.1529,294.3217 L474.661,294.0503 L466.3224,298.9992 L464.1529,294.3217 L454.203,305.6614 L446.0143,320.2724 L448.334,325.358 L447.1412,332.8492 L452.6076,342.7808 L450.3163,353.6953 L445.9881,350.2144 L447.2379,355.0496 L440.3363,360.2858 L434.6353,362.5233 L431.8633,369.5854 L422.5104,367.0018 L417.3326,357.1649 L418.6992,354.6563 L421.3221,353.2967 L423.8112,354.2735 L418.6992,354.6563 L419.6372,360.1373 L417.3326,357.1649 L424.8819,366.9016 L422.5104,367.0018 L433.0523,366.5565 L431.8633,369.5854 L440.3363,360.2858 L446.3975,351.7981 M412.9232,288.9981 L416.2148,292.5562 L420.0573,292.8869 L427.1566,289.6205 L438.0179,294.4323 L421.9509,298.6024 L411.1691,308.0439 M404.8396,296.0673 L409.1147,299.5828 L438.0179,294.4323 L424.8809,299.8896 L421.9509,298.6024 L418.0598,304.8709 L411.1691,308.0439 L409.0434,319.2846 L413.3656,320.7719 L416.6342,325.1781 L425.1555,321.5013 L418.8519,317.2115 L419.9899,320.5967 L421.2044,318.8123 L421.0406,322.2307 L419.9899,320.5967 L417.7815,320.5967 L418.852,317.2116 L421.4492,314.7019 L421.6535,317.3281 L425.1555,321.5013 L421.3031,324.8867 L416.6341,325.1783 L409.0434,319.2846 L414.6143,306.4574 M402.0773,293.7954 L404.8396,296.0673 L399.6396,301.4203 L402.0177,293.7463 L412.9232,288.9981 L409.1147,299.5828 L416.2148,292.5562 L438.0179,294.4323 L442.1883,301.1687 L452.7638,298.5247 L444.3574,306.1854 L454.2032,305.6617 L445.9712,310.9287 L446.0143,320.2724 L454.3445,312.3114 L450.1726,320.076 L448.334,325.358 L444.1702,326.4921 L445.2495,327.6301 L440.5222,333.7583 L440.0677,338.7544 L442.8024,343.5298 L440.2354,341.8116 L442.8944,345.6223 L443.9414,344.2923 L444.7464,349.0006 L443.6827,347.4641 L441.3339,347.6038 L444.7464,349.0006 M292.7713,422.6759 L290.624,422.7858 L290.0923,419.8869 M435.2703,394.835 L444.4713,389.7517 L451.403,388.683 L446.0605,394.5204 M358.7745,386.2902 L358.4622,380.8198 M350.8241,388.7656 L349.2279,391.4008 M411.1691,308.0439 L412.0173,312.4372 M447.188,343.173 L447.3922,341.1891 M443.6827,347.4641 L443.9414,344.2923 M433.0183,360.2663 L441.3352,356.7935 M317.9833,389.3739 L319.3312,386.1671 M293.9064,375.1399 L288.1045,381.3129 M472.0279,399.9493 L472.4035,408.1587 M468.4792,390.4064 L472.0279,399.9493 M335.5944,376.0284 L335.4181,374.8797 M330.3591,377.8108 L335.0395,372.4214 M278.7037,375.7404 L268.955,379.0941 M216.476,431.4558 L219.1422,429.6548 M216.2598,435.9233 L214.5305,433.4735 M234.1132,432.8132 L241.2129,425.7439 M240.1537,425.374 L235.6796,424.3273 M338.8346,431.3355 L340.5523,431.8021 M354.7072,408.1551 L351.4037,407.1504 M333.1347,445.9167 L336.8842,448.7791 M343.6494,352.1169 L339.7953,351.3373 M417.2592,400.5162 L406.1329,403.0406 M412.7664,456.7923 L411.2463,455.2107 M407.9663,459.2684 L414.3774,460.4518 M403.5282,447.1186 L402.0215,454.161 M399.9943,448.5311 L401.6266,445.6705 M396.1083,460.1276 L396.1551,457.1962 M421.2019,426.2726 L420.8364,428.053 M383.1549,412.7309 L381.123,412.0303 M394.3964,393.834 L405.313,398.9141 M432.5287,463.6582 L428.2775,467.3822 M458.5095,426.4959 L457.4297,424.0302 M462.1963,399.5859 L462.2218,406.2943 M453.7145,388.3266 L453.501,398.5103 M452.743,372.4859 L453.1727,376.3148 M450.5522,384.6979 L453.7145,388.3266 M442.4255,379.9664 L438.8669,384.192 M443.6442,364.2416 L443.6643,362.5002 M420.4032,358.3516 L423.0646,357.4516 M451.9416,345.9533 L456.324,357.7492 M438.2195,340.9669 L438.3527,336.6372 M372.623,306.4859 L371.3329,304.1964 M375.5125,311.1523 L375.3626,312.508 M362.433,312.3139 L364.3895,308.8197 M307.872,429.1689 L307.7368,431.6971 M419.1197,337.6668 L414.6176,337.6804 M441.1217,335.9719 L440.0677,338.7544 M441.1217,335.9719 L444.2404,341.714 M424.8345,310.4126 L423.3983,307.0813 M434.4987,299.3794 L438.0179,294.4323 M433.5357,298.0368 L432.5727,296.6943 M355.6764,291.5013 L358.5583,294.8193 M319.7961,365.0519 L321.0715,372.4173" fill="none" stroke="#000" stroke-width="1"/>
</svg>